<svg width="16" height="16" viewBox="0 0 16 16" fill="none" xmlns="http://www.w3.org/2000/svg">
<path d="M6.33337 12L9.00004 8H5.00004L7.66671 4M14.6667 8.66667V7.33333M9.33337 12H9.46671C10.5868 12 11.1469 12 11.5747 11.782C11.951 11.5903 12.257 11.2843 12.4487 10.908C12.6667 10.4802 12.6667 9.92011 12.6667 8.8V6.66667C12.6667 6.04669 12.6667 5.7367 12.5986 5.48236C12.4136 4.79218 11.8745 4.25308 11.1843 4.06815C10.93 4 10.62 4 10 4M4.66671 4H4.53337C3.41327 4 2.85322 4 2.42539 4.21799C2.04907 4.40973 1.74311 4.71569 1.55136 5.09202C1.33337 5.51984 1.33337 6.0799 1.33337 7.2V9.33333C1.33337 9.95331 1.33337 10.2633 1.40152 10.5176C1.58646 11.2078 2.12555 11.7469 2.81574 11.9319C3.07007 12 3.38006 12 4.00004 12" stroke="#E07C09" stroke-width="1.5" stroke-linecap="round" stroke-linejoin="round"/>
</svg>
