<svg width="24" height="24" viewBox="0 0 24 24" fill="none" xmlns="http://www.w3.org/2000/svg">
<g clip-path="url(#clip0_498_3832)">
<path d="M6.73703 5.32268C6.34651 4.93215 5.71334 4.93215 5.32282 5.32268C4.93229 5.7132 4.93229 6.34637 5.32282 6.73689L10.6136 12.0277L5.3228 17.3184C4.93228 17.709 4.93228 18.3421 5.3228 18.7326C5.71333 19.1232 6.34649 19.1232 6.73701 18.7326L12.0278 13.4419L17.3186 18.7326C17.7091 19.1232 18.3423 19.1232 18.7328 18.7326C19.1233 18.3421 19.1233 17.709 18.7328 17.3184L13.442 12.0277L18.7328 6.73689C19.1233 6.34637 19.1233 5.7132 18.7328 5.32268C18.3422 4.93215 17.7091 4.93215 17.3186 5.32268L12.0278 10.6134L6.73703 5.32268Z" fill="#444F66"/>
</g>
<defs>
<clipPath id="clip0_498_3832">
<rect width="24" height="24" fill="white"/>
</clipPath>
</defs>
</svg>
