<svg width="121" height="120" viewBox="0 0 121 120" fill="none" xmlns="http://www.w3.org/2000/svg">
<path d="M95.0717 68.1C94.1 68.1 93.3128 67.3125 93.3128 66.3411V30.3661C93.3128 28.4176 91.7275 26.8322 89.779 26.8322H79.7344C78.7628 26.8322 77.9756 26.0447 77.9756 25.0733C77.9756 24.1019 78.763 23.3145 79.7344 23.3145H89.779C93.6673 23.3145 96.8305 26.4777 96.8305 30.3661V66.3409C96.8305 67.3125 96.043 68.1 95.0717 68.1Z" fill="#A6D2FF"/>
<path d="M38.7748 85.1177H28.7304C24.8421 85.1177 21.6787 81.9544 21.6787 78.0661V45.7882C21.6787 44.8165 22.4662 44.0293 23.4375 44.0293C24.4089 44.0293 25.1964 44.8168 25.1964 45.7882V78.0661C25.1964 80.0146 26.7817 81.6 28.7304 81.6H38.7748C39.7464 81.6 40.5336 82.3874 40.5336 83.3588C40.5336 84.3305 39.7462 85.1177 38.7748 85.1177Z" fill="#A6D2FF"/>
<path d="M48.4593 14.3507C48.7875 12.7264 49.2027 10.8986 49.5584 10.0406C50.2753 8.31114 52.6413 6.93847 55.3417 7.19698C58.7173 7.52012 59.8892 8.97494 60.2 10.4841C60.3776 12.0155 60.3793 13.2225 59.9559 13.8577C59.5325 14.4928 58.6464 15.0561 56.8709 16.0993C56.3148 16.426 55.6597 16.6841 55.2195 16.8681C53.778 16.033 51.1319 14.9452 48.4593 14.3507Z" fill="#B3B3B3"/>
<path d="M47.9488 14.2406C47.9488 14.2406 49.2056 10.1363 49.8797 8.94845C50.5537 7.76059 52.4453 6.86104 54.9844 7.03859C58.1581 7.26053 59.6011 8.57966 60.0225 9.90159C60.362 10.9665 57.156 13.1133 54.6975 14.7815C54.1176 15.1749 53.5793 15.5402 53.139 15.856C51.6396 15.2242 50.0949 14.6701 48.2596 14.3071L47.9488 14.2406Z" fill="#D6D6D6"/>
<path d="M19.8068 26.1473C18.3863 35.9128 29.1722 40.7067 40.78 40.7067C52.3879 40.7067 62.2234 35.6106 61.724 27.1239C61.7239 18.6267 52.3879 13.541 40.78 13.541C29.1722 13.541 19.8068 18.0589 19.8068 26.1473Z" fill="#CCCCCC"/>
<ellipse cx="19.7528" cy="10.0984" rx="19.7528" ry="10.0984" transform="matrix(-1 0 0 1 60.3777 13.541)" fill="#F9F9F9"/>
<path d="M39.2558 19.2613C39.1634 19.2577 39.0712 19.2723 38.9844 19.304L36.1898 20.3272C35.972 20.407 35.8069 20.588 35.7475 20.8122L35.3818 22.1921C35.3052 22.4812 35.4179 22.7874 35.6637 22.9578L37.6242 24.3165C37.7289 24.3891 37.8506 24.4321 37.9777 24.441C38.8241 24.5006 42.1623 24.7324 42.2785 24.6937C42.4021 24.6525 44.7264 23.7215 45.0579 23.5887C45.0849 23.5778 45.1099 23.5659 45.1354 23.5518L45.4253 23.3919C45.6236 23.2824 45.7578 23.085 45.7866 22.8603L45.9609 21.5003C45.9959 21.2277 45.8705 20.9595 45.639 20.8115L43.6284 19.5264C43.522 19.4584 43.3993 19.42 43.2731 19.4152L39.2558 19.2613Z" fill="#52C41A"/>
<path d="M39.5518 19.8351C39.4789 19.8323 39.4061 19.8438 39.3376 19.8688L37.1322 20.6763C36.9604 20.7392 36.83 20.8821 36.7832 21.059L36.4946 22.148C36.4341 22.3762 36.5231 22.6178 36.7171 22.7522L38.2642 23.8245C38.3468 23.8817 38.4429 23.9157 38.5432 23.9227C39.2111 23.9697 41.8455 24.1527 41.9372 24.1221C42.0347 24.0896 43.8689 23.3549 44.1306 23.2501C44.1519 23.2415 44.1716 23.2321 44.1917 23.221L44.4205 23.0948C44.577 23.0084 44.6829 22.8526 44.7056 22.6753L44.8432 21.602C44.8708 21.3869 44.7718 21.1753 44.5891 21.0585L43.0025 20.0444C42.9185 19.9907 42.8217 19.9604 42.7221 19.9565L39.5518 19.8351Z" fill="#95DE64"/>
<path d="M7.85681 35.8851C9.56212 35.784 13.8949 34.3478 16.9439 33.3371C18.6317 32.7776 19.8902 32.3701 20.15 32.2918C20.3534 32.2305 20.4029 32.2267 20.4558 32.0274C20.517 30.7654 20.333 29.6698 20.15 28.9781C20.1428 28.9734 20.1346 28.9707 20.1256 28.9702C19.1983 28.9232 17.8347 28.7923 16.2571 28.6409C13.5746 28.3835 10.2735 28.0667 7.44658 28.0018C5.28385 27.9522 4.10908 28.9089 3.65423 30.3281C3.65277 30.3326 3.65179 30.3373 3.65129 30.3421C3.48072 31.9773 3.34771 34.0079 3.87425 34.6921C4.47249 35.4694 5.20749 36.0422 7.85681 35.8851Z" fill="#B3B3B3"/>
<path d="M20.0465 28.6259C20.1696 29.0008 20.3172 29.6022 20.4009 30.3452C20.346 30.3997 20.2687 30.4307 20.1635 30.4307C20.0581 30.459 19.793 30.5153 19.4059 30.5976C18.7099 30.7455 17.6196 30.9771 16.3542 31.2804C13.3523 31.9999 9.43587 32.9386 7.85669 33.0929C5.2415 33.3484 4.40394 32.5046 3.97662 31.976C3.30668 31.1474 3.25872 28.0039 7.44646 28.0034C10.1406 28.0031 13.6036 28.23 16.3925 28.4128C17.872 28.5098 19.1618 28.5943 20.0465 28.6259Z" fill="#D6D6D6"/>
<path d="M54.0768 34.6199C54.2705 34.5952 54.4666 34.5829 54.6614 34.5815C54.685 34.5814 54.7051 34.5848 54.7269 34.5939C55.4058 34.8793 67.4716 39.9537 68.1691 40.4407C68.8869 40.9418 69.0563 42.2846 69.0123 43.7476C69.0069 43.9297 69.005 44.1075 69.0032 44.2806C69.0123 44.8351 68.7597 46.1533 67.946 46.8104C66.9989 47.5752 63.4961 49.1671 60.0682 47.4622C58.7576 46.8104 55.0262 42.4285 52.9517 39.5116C52.5584 38.9586 52.1902 38.4409 51.8551 37.9837C51.8409 37.9643 51.831 37.9421 51.8257 37.9186C51.8174 37.8819 51.8097 37.8456 51.8023 37.8096C51.866 35.6114 53.0717 34.8153 54.0768 34.6199Z" fill="#B3B3B3"/>
<path d="M53.7997 34.6884C54.0572 34.6234 54.3437 34.5842 54.6608 34.5815C54.6836 34.5814 54.7061 34.5856 54.7272 34.5941C55.3812 34.8578 66.0204 39.1506 67.4795 39.908C68.985 40.6895 69.8547 42.882 67.4795 43.9474C64.994 45.1902 61.4431 44.9683 60.0669 44.1693C59.0779 43.5952 56.4237 40.775 54.2284 38.4425C53.4298 37.5939 52.6918 36.8099 52.117 36.222C52.4975 35.3286 53.1637 34.8802 53.7997 34.6884Z" fill="#D6D6D6"/>
<path d="M112.909 104.799H49.6292V66.5985C49.6292 62.7904 52.7162 59.7034 56.5245 59.7034H106.014C109.822 59.7034 112.909 62.7904 112.909 66.5985V104.799Z" fill="#CCCCCC"/>
<path d="M118.493 107.466C118.493 105.993 117.298 104.799 115.826 104.799H46.7134C45.2403 104.799 44.0464 105.993 44.0464 107.466V112.334C44.0464 113.807 45.2405 115.001 46.7134 115.001H115.826C117.299 115.001 118.493 113.807 118.493 112.334V107.466Z" fill="#CCCCCC"/>
<path d="M115.825 104.799H111.188C112.662 104.799 113.855 105.993 113.855 107.466V112.334C113.855 113.807 112.661 115 111.188 115H115.825C117.299 115 118.492 113.806 118.492 112.334V107.466C118.493 105.993 117.299 104.799 115.825 104.799Z" fill="#B3B3B3"/>
<path d="M106.014 59.7031H101.785C105.593 59.7031 108.68 62.7902 108.68 66.5985V98.3451C108.68 99.8822 107.434 101.128 105.897 101.128H49.6292V104.799H112.909V66.5985C112.909 62.7904 109.822 59.7031 106.014 59.7031Z" fill="#B3B3B3"/>
<path d="M56.8738 104.799V68.2999C56.8738 67.5531 57.4793 66.9478 58.2259 66.9478H104.313C105.059 66.9478 105.665 67.5533 105.665 68.2999V104.799H56.8738Z" fill="#E6F3FF"/>
<path d="M56.8738 101.128H105.665V104.799H56.8738V101.128Z" fill="black" fill-opacity="0.06"/>
<path d="M82.2795 111.711H80.2589C79.2584 111.711 78.4478 110.9 78.4478 109.9C78.4478 108.9 79.2586 108.089 80.2589 108.089H82.2795C83.28 108.089 84.0906 108.9 84.0906 109.9C84.0906 110.9 83.28 111.711 82.2795 111.711Z" fill="#B3B3B3"/>
<path d="M69.7036 24.4137L78.3329 18.2525C78.9195 17.8336 79.7345 18.253 79.7345 18.9739V31.2962C79.7345 32.0172 78.9197 32.4365 78.3329 32.0176L69.7036 25.8566C69.2082 25.5031 69.2082 24.7673 69.7036 24.4137Z" fill="#549EFF"/>
<path d="M91.5325 43.2433V36.7149C91.5325 34.7603 93.1169 33.1758 95.0715 33.1758C97.0261 33.1758 98.6106 34.7603 98.6106 36.7149V43.2433C98.6106 45.198 97.0261 46.7825 95.0715 46.7825C93.1169 46.7825 91.5325 45.198 91.5325 43.2433Z" fill="#549EFF"/>
<path d="M48.8061 84.0185L40.1768 90.1797C39.5901 90.5986 38.7751 90.1793 38.7751 89.4583V77.1361C38.7751 76.4151 39.5899 75.9957 40.1768 76.4146L48.8061 82.5759C49.3012 82.9289 49.3012 83.665 48.8061 84.0185Z" fill="#549EFF"/>
<path d="M26.9768 65.1876V71.716C26.9768 73.6706 25.3923 75.2551 23.4377 75.2551C21.4831 75.2551 19.8987 73.6706 19.8987 71.716V65.1876C19.8987 63.2329 21.4831 61.6484 23.4377 61.6484C25.3923 61.6487 26.9768 63.2331 26.9768 65.1876Z" fill="#549EFF"/>
</svg>
