<svg width="112" height="112" viewBox="0 0 112 112" fill="none" xmlns="http://www.w3.org/2000/svg">
<path d="M92.3563 91.0722L62.6172 101.281C59.1196 102.46 55.345 102.541 51.8001 101.513L28.6432 94.2353L14.9976 97.4991V76.2103H26.3726L28.6541 74.83C31.9004 72.9728 31.9966 72.9072 32.4669 72.6753C34.7758 71.5116 37.3276 70.9114 39.9131 70.9239C42.4987 70.9364 45.0445 71.5614 47.3419 72.7475C49.6645 73.9485 52.2413 74.5748 54.856 74.5741H62.0638C62.8038 74.5741 63.5366 74.7198 64.2202 75.003C64.9039 75.2862 65.5251 75.7013 66.0484 76.2245C66.5716 76.7478 66.9867 77.369 67.2699 78.0527C67.5531 78.7363 67.6988 79.4691 67.6988 80.2091C67.6988 80.9491 67.5531 81.6818 67.2699 82.3655C66.9867 83.0492 66.5716 83.6704 66.0484 84.1936C65.5251 84.7169 64.9039 85.132 64.2202 85.4151C63.5366 85.6983 62.8038 85.8441 62.0638 85.8441H66.8391C67.4089 85.8448 67.9754 85.7585 68.5191 85.5881L88.5194 79.2444C90.0885 78.7353 91.7955 78.8704 93.265 79.6199C94.7344 80.3694 95.846 81.6719 96.3551 83.241C96.8642 84.81 96.7291 86.517 95.9796 87.9865C95.2301 89.4559 93.9275 90.5675 92.3585 91.0766L92.3563 91.0722Z" fill="#F5F5F5"/>
<path style="mix-blend-mode:multiply" d="M32.456 72.6753V95.4253L28.6432 94.2265L14.9976 97.499V76.2103H26.3726L28.6541 74.83C31.8894 72.9728 31.9857 72.9072 32.456 72.6753Z" fill="url(#paint0_linear_554_3074)"/>
<path d="M51.6246 102.156L28.6274 94.9375L15.1524 98.1378L14.8462 96.8603L28.6668 93.5572L51.9965 100.892C55.4071 101.887 59.041 101.811 62.4068 100.673L92.1415 90.4597C93.5144 89.9803 94.6451 88.9826 95.2916 87.6801C95.9382 86.3775 96.0492 84.8737 95.601 83.4903C95.1527 82.107 94.1808 80.954 92.8932 80.2782C91.6056 79.6024 90.1046 79.4575 88.7115 79.8744L68.7156 86.2181C68.108 86.408 67.4752 86.5047 66.8387 86.5047H48.9165V85.1922H62.0612C62.715 85.1922 63.3624 85.0634 63.9665 84.8132C64.5705 84.563 65.1194 84.1963 65.5817 83.7339C66.044 83.2716 66.4107 82.7228 66.661 82.1187C66.9112 81.5147 67.0399 80.8672 67.0399 80.2134C67.0399 79.5596 66.9112 78.9122 66.661 78.3081C66.4107 77.7041 66.044 77.1552 65.5817 76.6929C65.1194 76.2306 64.5705 75.8639 63.9665 75.6137C63.3624 75.3635 62.715 75.2347 62.0612 75.2347H54.8424C52.1243 75.2303 49.4464 74.5779 47.0309 73.3316C44.7016 72.1215 42.1054 71.5167 39.4812 71.5729C36.8569 71.6291 34.289 72.3444 32.0137 73.6531C28.354 75.7487 29.5921 75.0181 26.5449 76.8666H14.9993V75.5541H26.1774C28.8549 73.9331 27.6912 74.6178 31.3684 72.5134C33.8337 71.0958 36.616 70.3209 39.4592 70.2601C42.3025 70.1993 45.1153 70.8546 47.639 72.1656C49.8719 73.3147 52.3466 73.9146 54.8578 73.9156H62.0765C63.3897 73.9148 64.6702 74.3251 65.7384 75.0889C66.8066 75.8527 67.6089 76.9318 68.0328 78.1747C68.4566 79.4176 68.4808 80.762 68.1019 82.0194C67.723 83.2767 66.96 84.3839 65.9199 85.1856C66.8868 85.1856 67.4753 85.2294 68.3371 84.9669L88.3331 78.6231C90.0675 78.0598 91.9546 78.2085 93.5793 79.0366C95.2041 79.8646 96.4333 81.3042 96.9967 83.0386C97.56 84.773 97.4113 86.6601 96.5832 88.2849C95.7551 89.9096 94.3156 91.1388 92.5812 91.7022L62.8312 101.907C59.2096 103.137 55.2974 103.224 51.6246 102.156Z" fill="#767A93"/>
<path d="M70.1551 42.256C70.1558 41.2323 70.5256 40.2433 71.1966 39.4702C71.8676 38.6972 72.7948 38.192 73.8082 38.0472C73.1198 35.7242 71.8895 33.598 70.2185 31.8435C69.5866 32.6478 68.686 33.1974 67.6817 33.3916C66.6774 33.5857 65.6369 33.4114 64.7507 32.9005C63.8646 32.3897 63.1922 31.5765 62.857 30.6102C62.5217 29.6438 62.546 28.589 62.9254 27.6391C60.5706 27.0759 58.1161 27.0759 55.7613 27.6391C56.1432 28.5883 56.1697 29.6434 55.836 30.6106C55.5022 31.5777 54.8306 32.3919 53.9446 32.9036C53.0586 33.4152 52.0177 33.5899 51.0132 33.3956C50.0088 33.2012 49.1081 32.6509 48.4769 31.8457C46.8016 33.5971 45.5732 35.7266 44.896 38.0538C45.9105 38.1967 46.8393 38.7013 47.5113 39.4746C48.1833 40.248 48.5534 41.238 48.5534 42.2626C48.5534 43.2871 48.1833 44.2771 47.5113 45.0505C46.8393 45.8238 45.9105 46.3284 44.896 46.4713C45.58 48.7948 46.8084 50.9215 48.4791 52.6751C49.1069 51.8606 50.0088 51.3013 51.0174 51.101C52.0261 50.9006 53.0732 51.0728 53.9647 51.5855C54.8561 52.0983 55.5314 52.9168 55.8654 53.8895C56.1994 54.8621 56.1694 55.9228 55.781 56.8751C58.134 57.4537 60.5921 57.4537 62.9451 56.8751C62.5732 55.9286 62.5532 54.8802 62.8886 53.9203C63.224 52.9603 63.8926 52.1526 64.773 51.6437C65.6533 51.1348 66.687 50.9586 67.6862 51.147C68.6855 51.3355 69.584 51.8761 70.2185 52.6707C71.8945 50.921 73.1224 48.7918 73.7972 46.4647C72.7857 46.318 71.8608 45.8119 71.1919 45.039C70.5231 44.2661 70.155 43.2781 70.1551 42.256ZM61.9563 46.5369C61.0646 47.0519 60.0402 47.2908 59.0127 47.2235C57.9851 47.1562 57.0006 46.7858 56.1837 46.159C55.3667 45.5322 54.754 44.6772 54.4229 43.7021C54.0919 42.727 54.0574 41.6757 54.3239 40.6811C54.5904 39.6864 55.1459 38.7931 55.92 38.1142C56.6942 37.4352 57.6523 37.0011 58.6732 36.8667C59.6942 36.7323 60.732 36.9036 61.6555 37.3591C62.5791 37.8145 63.3468 38.5336 63.8616 39.4254C64.5519 40.6211 64.739 42.0421 64.3817 43.3757C64.0244 44.7094 63.152 45.8465 61.9563 46.5369Z" fill="#F5F5F5"/>
<path d="M15.2251 71.5837H28.9582V98.2209H15.2251V71.5837Z" fill="#549EFF"/>
<path d="M29.6145 98.875H14.5688V70.9319H29.6145V98.875ZM15.8813 97.5625H28.302V72.2444H15.8813V97.5625Z" fill="#767A93"/>
<path d="M22.0916 94.1391C23.2285 94.1391 24.1501 93.2175 24.1501 92.0807C24.1501 90.9438 23.2285 90.0222 22.0916 90.0222C20.9548 90.0222 20.0332 90.9438 20.0332 92.0807C20.0332 93.2175 20.9548 94.1391 22.0916 94.1391Z" fill="#F5F5F5"/>
<path style="mix-blend-mode:multiply" d="M66.7385 42.2559C66.9288 36.5203 60.7644 32.7469 55.6785 35.6147C54.5147 36.2805 53.5539 37.2502 52.8989 38.42C52.2438 39.5899 51.9192 40.9158 51.9597 42.2559H54.1472C54.1185 41.5552 54.2317 40.8558 54.48 40.1999C54.7284 39.544 55.1067 38.945 55.5924 38.439C56.0781 37.933 56.661 37.5304 57.3062 37.2553C57.9514 36.9803 58.6455 36.8385 59.3469 36.8385C60.0483 36.8385 60.7424 36.9803 61.3876 37.2553C62.0328 37.5304 62.6157 37.933 63.1014 38.439C63.5871 38.945 63.9655 39.544 64.2138 40.1999C64.4622 40.8558 64.5754 41.5552 64.5466 42.2559H66.7385ZM66.7385 42.2559C66.9288 36.5203 60.7644 32.7469 55.6785 35.6147C54.5147 36.2805 53.5539 37.2502 52.8989 38.42C52.2438 39.5899 51.9192 40.9158 51.9597 42.2559H54.1472C54.1185 41.5552 54.2317 40.8558 54.48 40.1999C54.7284 39.544 55.1067 38.945 55.5924 38.439C56.0781 37.933 56.661 37.5304 57.3062 37.2553C57.9514 36.9803 58.6455 36.8385 59.3469 36.8385C60.0483 36.8385 60.7424 36.9803 61.3876 37.2553C62.0328 37.5304 62.6157 37.933 63.1014 38.439C63.5871 38.945 63.9655 39.544 64.2138 40.1999C64.4622 40.8558 64.5754 41.5552 64.5466 42.2559H66.7385ZM70.1554 42.2559H67.9679C67.9696 43.35 68.2491 44.4257 68.7802 45.3822C69.3112 46.3387 70.0764 47.1447 71.0041 47.7247C70.6946 48.3885 70.3287 49.0245 69.9104 49.6256C68.9457 49.1113 67.8658 48.8514 66.7728 48.8702C65.6797 48.8891 64.6095 49.1862 63.6632 49.7335C62.7168 50.2808 61.9255 51.0602 61.364 51.9982C60.8024 52.9361 60.4892 54.0017 60.4538 55.0944C59.726 55.1576 58.9941 55.1576 58.2663 55.0944C58.2309 54.0017 57.9176 52.9361 57.3561 51.9982C56.7946 51.0602 56.0033 50.2808 55.0569 49.7335C54.1106 49.1862 53.0404 48.8891 51.9473 48.8702C50.8543 48.8514 49.7744 49.1113 48.8097 49.6256C48.3932 49.0241 48.0273 48.389 47.716 47.7269C48.6428 47.1462 49.4073 46.3399 49.9379 45.3836C50.4685 44.4272 50.7479 43.3518 50.75 42.2581H48.5625C48.5627 43.2826 48.193 44.2727 47.5214 45.0463C46.8498 45.82 45.9215 46.3252 44.9072 46.4691C45.5912 48.7925 46.8196 50.9193 48.4904 52.6728C49.1215 51.8675 50.0219 51.3169 51.0263 51.122C52.0307 50.9272 53.0717 51.1012 53.9582 51.6121C54.8446 52.123 55.517 52.9365 55.8519 53.9033C56.1868 54.8701 56.1617 55.9252 55.7813 56.875C58.1343 57.4537 60.5924 57.4537 62.9454 56.875C62.5735 55.9286 62.5535 54.8802 62.8889 53.9202C63.2243 52.9603 63.8929 52.1525 64.7733 51.6436C65.6536 51.1347 66.6873 50.9585 67.6865 51.147C68.6858 51.3354 69.5843 51.876 70.2188 52.6706C71.8948 50.9209 73.1227 48.7917 73.7975 46.4647C72.786 46.318 71.8611 45.8119 71.1922 45.039C70.5234 44.266 70.1553 43.2781 70.1554 42.2559ZM66.7385 42.2559C66.9288 36.5203 60.7644 32.7469 55.6785 35.6147C54.5147 36.2805 53.5539 37.2502 52.8989 38.42C52.2438 39.5899 51.9192 40.9158 51.9597 42.2559H54.1472C54.1185 41.5552 54.2317 40.8558 54.48 40.1999C54.7284 39.544 55.1067 38.945 55.5924 38.439C56.0781 37.933 56.661 37.5304 57.3062 37.2553C57.9514 36.9803 58.6455 36.8385 59.3469 36.8385C60.0483 36.8385 60.7424 36.9803 61.3876 37.2553C62.0328 37.5304 62.6157 37.933 63.1014 38.439C63.5871 38.945 63.9655 39.544 64.2138 40.1999C64.4622 40.8558 64.5754 41.5552 64.5466 42.2559H66.7385Z" fill="url(#paint1_linear_554_3074)"/>
<path fill-rule="evenodd" clip-rule="evenodd" d="M55.6086 27.0009C58.0638 26.4136 60.6228 26.4136 63.078 27.0009L63.8163 27.1775L63.5348 27.8825C63.2139 28.6858 63.1934 29.5779 63.4769 30.3951C63.7604 31.2123 64.329 31.9 65.0784 32.332C65.8278 32.764 66.7078 32.9114 67.5571 32.7472C68.4064 32.5831 69.168 32.1183 69.7024 31.4381L70.1708 30.8419L70.6937 31.3909C72.4363 33.2206 73.7194 35.4381 74.4373 37.8608L74.6533 38.5894L73.9009 38.6969C73.0439 38.8193 72.2597 39.2466 71.6922 39.9004C71.1247 40.5542 70.8119 41.3907 70.8113 42.2565C70.8113 43.1207 71.1226 43.956 71.6881 44.6096C72.2538 45.2632 73.0359 45.6912 73.8914 45.8153L74.6375 45.9235L74.4275 46.6475C73.7231 49.0762 72.4416 51.2985 70.6924 53.1246L70.1736 53.6662L69.7056 53.0802C69.1691 52.4083 68.4094 51.9512 67.5646 51.7919C66.7197 51.6326 65.8457 51.7816 65.1013 52.2118C64.357 52.6421 63.7916 53.3251 63.508 54.1367C63.2244 54.9484 63.2414 55.8349 63.5558 56.6351L63.8301 57.3332L63.1017 57.5123C60.6458 58.1163 58.0801 58.1163 55.6242 57.5123L54.8863 57.3308L55.1733 56.6272C55.5017 55.822 55.5271 54.9251 55.2446 54.1026C54.9622 53.2801 54.3912 52.588 53.6374 52.1544C52.8836 51.7208 51.9982 51.5752 51.1452 51.7446C50.2923 51.914 49.5297 52.3869 48.9988 53.0757L48.5317 53.6817L48.0039 53.1277C46.2612 51.2987 44.9799 49.0802 44.2664 46.6566L44.0518 45.9275L44.8044 45.8215C45.6623 45.7006 46.4476 45.2739 47.0159 44.62C47.5841 43.9661 47.8971 43.1289 47.8971 42.2626C47.8971 41.3962 47.5841 40.559 47.0159 39.9051C46.4476 39.2512 45.6623 38.8245 44.8044 38.7036L44.0541 38.5979L44.2658 37.8704C44.9725 35.442 46.2543 33.2197 48.0027 31.392L48.5261 30.8448L48.9933 31.4408C49.5271 32.1216 50.2885 32.5869 51.1379 32.7513C51.9872 32.9156 52.8673 32.7679 53.6164 32.3353C54.3655 31.9027 54.9334 31.2142 55.2156 30.3965C55.4978 29.5787 55.4753 28.6866 55.1524 27.8841L54.8683 27.1779L55.6086 27.0009ZM56.6009 28.1303C56.8044 29.0193 56.7571 29.9529 56.4563 30.8246C56.071 31.9412 55.2956 32.8812 54.2728 33.4719C53.2499 34.0626 52.0482 34.2643 50.8885 34.0399C49.982 33.8645 49.1488 33.438 48.4802 32.8161C47.2701 34.2106 46.339 35.8247 45.7377 37.5704C46.6123 37.8379 47.4 38.3462 48.0066 39.0442C48.7824 39.9369 49.2096 41.0798 49.2096 42.2626C49.2096 43.4453 48.7824 44.5882 48.0066 45.4809C47.4005 46.1784 46.6135 46.6865 45.7398 46.9541C46.3447 48.6949 47.2745 50.3053 48.4797 51.6996C49.1466 51.0709 49.9805 50.6378 50.8895 50.4573C52.054 50.226 53.2627 50.4248 54.2918 51.0167C55.3209 51.6086 56.1004 52.5535 56.486 53.6763C56.7875 54.5544 56.8321 55.4947 56.6227 56.3886C58.4353 56.7414 60.2992 56.7408 62.1116 56.387C61.9143 55.5003 61.9661 54.5708 62.269 53.7038C62.6562 52.5956 63.4281 51.663 64.4445 51.0755C65.4608 50.488 66.6542 50.2846 67.8078 50.5021C68.7103 50.6723 69.5416 51.0914 70.2116 51.705C71.4243 50.3101 72.3565 48.694 72.9568 46.9458C72.0846 46.676 71.2997 46.1664 70.6957 45.4684C69.9236 44.5763 69.4987 43.4358 69.4988 42.2559V42.2555C69.4996 41.074 69.9265 39.9324 70.701 39.0401C71.3059 38.3431 72.0913 37.8348 72.9635 37.566C72.3548 35.8229 71.4217 34.2106 70.2137 32.8143C69.5449 33.4351 68.7121 33.8608 67.8062 34.0359C66.647 34.26 65.4458 34.0587 64.4229 33.4691C63.4 32.8794 62.6239 31.9408 62.2369 30.8253C61.9346 29.9539 61.8856 29.0202 62.0873 28.1306C60.2747 27.7871 58.4135 27.787 56.6009 28.1303ZM61.3652 37.9476C60.5581 37.5496 59.6511 37.3999 58.7589 37.5173C57.8666 37.6348 57.0293 38.0142 56.3527 38.6076C55.6761 39.2009 55.1907 39.9816 54.9578 40.8509C54.7249 41.7202 54.755 42.639 55.0443 43.4911C55.3336 44.3433 55.8691 45.0905 56.5831 45.6383C57.2971 46.1861 58.1575 46.5099 59.0555 46.5687C59.9535 46.6275 60.8488 46.4187 61.6281 45.9686C62.673 45.3652 63.4355 44.3714 63.7478 43.2059C64.06 42.0403 63.8965 40.7985 63.2932 39.7535C62.8433 38.9741 62.1723 38.3457 61.3652 37.9476ZM58.5875 36.2161C59.7371 36.0647 60.9058 36.2576 61.9457 36.7705C62.9857 37.2834 63.8502 38.0931 64.4299 39.0973C65.2072 40.4437 65.4179 42.0438 65.0156 43.5456C64.6132 45.0473 63.6308 46.3278 62.2844 47.1052C61.2803 47.6851 60.1268 47.9541 58.9697 47.8784C57.8127 47.8026 56.7041 47.3854 55.7842 46.6796C54.8642 45.9738 54.1742 45.011 53.8015 43.9131C53.4287 42.8151 53.3899 41.6313 53.69 40.5112C53.9901 39.3912 54.6155 38.3853 55.4873 37.6208C56.359 36.8563 57.4379 36.3674 58.5875 36.2161Z" fill="#767A93"/>
<path d="M38.6879 52.1653H35.2186C33.96 52.1653 32.7529 51.6655 31.8628 50.7757C30.9726 49.886 30.4723 48.6792 30.4717 47.4206V40.5868C30.4723 39.3283 30.9726 38.1215 31.8628 37.2317C32.7529 36.342 33.96 35.8422 35.2186 35.8422H38.6836L38.6879 52.1653Z" fill="#549EFF"/>
<path d="M83.6278 52.1653H80.1606V35.8422H83.6278C84.2511 35.8419 84.8683 35.9644 85.4442 36.2027C86.0201 36.441 86.5434 36.7905 86.9842 37.2311C87.4251 37.6717 87.7747 38.1948 88.0133 38.7706C88.2519 39.3464 88.3747 39.9636 88.3747 40.5868V47.4206C88.3747 48.0439 88.2519 48.661 88.0133 49.2368C87.7747 49.8126 87.4251 50.3358 86.9842 50.7764C86.5434 51.217 86.0201 51.5664 85.4442 51.8047C84.8683 52.0431 84.2511 52.1656 83.6278 52.1653Z" fill="#549EFF"/>
<path d="M82.2825 52.1654H78.0409V35.0132C77.9878 30.1107 76.003 25.427 72.5174 21.9791C69.0319 18.5311 64.327 16.5972 59.4242 16.5972C54.5214 16.5972 49.8165 18.5311 46.331 21.9791C42.8454 25.427 40.8606 30.1107 40.8075 35.0132V52.1654H36.5659V35.0132C36.5659 32.0112 37.1572 29.0387 38.306 26.2653C39.4548 23.4919 41.1386 20.9719 43.2613 18.8492C45.384 16.7265 47.904 15.0427 50.6774 13.8939C53.4508 12.7451 56.4234 12.1538 59.4253 12.1538C62.4272 12.1538 65.3998 12.7451 68.1732 13.8939C70.9466 15.0427 73.4666 16.7265 75.5893 18.8492C77.712 20.9719 79.3958 23.4919 80.5446 26.2653C81.6934 29.0387 82.2847 32.0112 82.2847 35.0132L82.2825 52.1654Z" fill="#767A93"/>
<path d="M72.9594 69.1995H59.4253V67.887H72.9594C75.3564 67.8847 77.6546 66.9309 79.3489 65.2353C81.0433 63.5397 81.9953 61.2409 81.9959 58.8438V52.1654H83.3084V58.8438C83.3073 61.5888 82.2167 64.2212 80.2764 66.1628C78.336 68.1044 75.7043 69.1966 72.9594 69.1995Z" fill="#767A93"/>
<path d="M61.2325 69.1995H57.295C56.6473 69.1995 56.0262 68.9424 55.568 68.4846C55.1098 68.0268 54.8521 67.4059 54.8516 66.7582V66.4804C54.8521 65.8326 55.1098 65.2114 55.5679 64.7533C56.026 64.2952 56.6471 64.0376 57.295 64.037H61.2325C61.88 64.0381 62.5006 64.296 62.9582 64.7541C63.4159 65.2121 63.6732 65.8329 63.6737 66.4804V66.7582C63.6732 67.4055 63.4158 68.0261 62.9581 68.4838C62.5004 68.9415 61.8798 69.1989 61.2325 69.1995ZM57.295 65.3495C56.9952 65.3501 56.7079 65.4694 56.4959 65.6814C56.284 65.8933 56.1646 66.1807 56.1641 66.4804V66.7582C56.1646 67.0578 56.2841 67.3449 56.4961 67.5565C56.7081 67.7681 56.9954 67.887 57.295 67.887H61.2325C61.5319 67.887 61.819 67.7681 62.0306 67.5564C62.2423 67.3447 62.3612 67.0576 62.3612 66.7582V66.4804C62.3612 66.1809 62.2424 65.8935 62.0308 65.6815C61.8192 65.4695 61.5321 65.3501 61.2325 65.3495H57.295Z" fill="#767A93"/>
<path d="M61.2325 64.6932H57.2972C56.3114 64.6932 55.5122 65.4924 55.5122 66.4782V66.7582C55.5122 67.7441 56.3114 68.5432 57.2972 68.5432H61.2325C62.2183 68.5432 63.0175 67.7441 63.0175 66.7582V66.4782C63.0175 65.4924 62.2183 64.6932 61.2325 64.6932Z" fill="#767A93"/>
<path d="M18.3224 62.8972C18.0657 62.5757 17.8922 62.1959 17.8172 61.7914C17.7423 61.3869 17.7683 60.9701 17.8928 60.578C18.0174 60.1859 18.2367 59.8306 18.5313 59.5435C18.8259 59.2563 19.1868 59.0463 19.582 58.9318C19.9771 58.8174 20.3944 58.8022 20.7969 58.8875C21.1993 58.9729 21.5746 59.1561 21.8893 59.421C22.2041 59.6859 22.4487 60.0243 22.6014 60.4063C22.7542 60.7883 22.8105 61.202 22.7652 61.611C22.7088 62.102 22.5084 62.5654 22.1893 62.9429C21.8702 63.3205 21.4467 63.5952 20.9719 63.7327C20.4971 63.8701 19.9922 63.8642 19.5208 63.7155C19.0494 63.5669 18.6325 63.2822 18.3224 62.8972ZM20.2758 60.1563C20.0457 60.1562 19.8205 60.2229 19.6274 60.3483C19.4344 60.4736 19.2819 60.6522 19.1883 60.8625C19.0948 61.0728 19.0642 61.3057 19.1003 61.533C19.1364 61.7603 19.2377 61.9722 19.3918 62.1431C19.5459 62.3141 19.7463 62.4366 19.9686 62.496C20.191 62.5554 20.4258 62.549 20.6446 62.4776C20.8634 62.4062 21.0568 62.2729 21.2014 62.0939C21.346 61.9148 21.4356 61.6977 21.4593 61.4688C21.4761 61.3031 21.458 61.1358 21.4062 60.9776C21.3544 60.8194 21.2701 60.6737 21.1586 60.5501C21.0471 60.4265 20.9109 60.3275 20.7589 60.2597C20.6069 60.1919 20.4423 60.1566 20.2758 60.1563Z" fill="#767A93"/>
<path d="M7.64299 73.6772C7.44419 73.4281 7.30989 73.1338 7.25199 72.8204C7.19408 72.507 7.21435 72.1842 7.31101 71.8805C7.40767 71.5768 7.57772 71.3016 7.80612 71.0793C8.03451 70.8571 8.3142 70.6945 8.62041 70.6062C8.92661 70.5178 9.24989 70.5063 9.5616 70.5727C9.87331 70.6391 10.1638 70.7813 10.4075 70.9868C10.6511 71.1923 10.8403 71.4547 10.9583 71.7507C11.0762 72.0468 11.1194 72.3674 11.0839 72.6841C11.0403 73.0645 10.885 73.4235 10.6377 73.7158C10.3905 74.0082 10.0622 74.2208 9.69432 74.327C9.32643 74.4332 8.93535 74.4282 8.57032 74.3125C8.2053 74.1969 7.88264 73.9758 7.64299 73.6772ZM9.15674 71.8441C9.03596 71.8444 8.91784 71.8796 8.81665 71.9456C8.71546 72.0115 8.63552 72.1053 8.58649 72.2157C8.53745 72.3261 8.52142 72.4483 8.54032 72.5676C8.55922 72.6869 8.61224 72.7982 8.69299 72.888C8.77374 72.9778 8.87877 73.0423 8.99539 73.0738C9.112 73.1052 9.23523 73.1022 9.35019 73.0652C9.46514 73.0281 9.56691 72.9586 9.64321 72.8649C9.71951 72.7713 9.76708 72.6576 9.78017 72.5375C9.78971 72.45 9.78069 72.3615 9.75369 72.2778C9.72669 72.194 9.68232 72.1169 9.62348 72.0514C9.56464 71.986 9.49266 71.9337 9.41223 71.898C9.3318 71.8622 9.24474 71.8439 9.15674 71.8441Z" fill="#767A93"/>
<path d="M85.7128 30.0737C85.699 29.6647 85.6588 29.257 85.5925 28.8531L86.8875 28.6344C86.9641 29.0938 87.0101 29.5579 87.0253 30.0234L85.7128 30.0737ZM85.0566 26.8363C84.9253 26.4338 84.7832 26.0269 84.6322 25.6266L85.8594 25.1628C86.0169 25.5806 86.1678 26.0072 86.2969 26.4294L85.0566 26.8363ZM83.7988 23.66C83.6172 23.2772 83.4247 22.8922 83.2257 22.5138L84.3872 21.9013C84.606 22.2972 84.7963 22.7019 84.9866 23.1022L83.7988 23.66ZM82.1582 20.6609C81.9394 20.3 81.6944 19.9391 81.4538 19.5869L82.5344 18.8431C82.786 19.2084 83.0354 19.5869 83.2716 19.9631L82.1582 20.6609ZM80.1763 17.8697C79.9116 17.5372 79.6338 17.2134 79.3538 16.8809L80.3447 16.0212C80.6379 16.3581 80.9266 16.7038 81.2022 17.0494L80.1763 17.8697ZM77.8947 15.3125C77.5972 15.0106 77.2844 14.7109 76.9694 14.4178L77.875 13.4531C78.2032 13.7594 78.5313 14.0722 78.8375 14.385L77.8947 15.3125ZM75.3528 13.0069C75.0182 12.7334 74.6769 12.4666 74.3378 12.2128L75.1253 11.1628C75.4775 11.4275 75.8341 11.7053 76.1797 11.9875L75.3528 13.0069ZM72.5791 10.9922C71.9097 10.5547 71.5007 10.3491 71.4854 10.3359L72.1022 9.1875C72.1197 9.19844 72.5616 9.42812 73.2857 9.88969L72.5791 10.9922Z" fill="#A9AFC4"/>
<path d="M97.2871 77.2229L100.235 74.2752L101.163 75.2031L98.215 78.1508L97.2871 77.2229Z" fill="#767A93"/>
<path d="M99.9556 80.4803H104.125V81.7928H99.9556V80.4803Z" fill="#767A93"/>
<path d="M93.9287 71.2316H95.2412V75.4009H93.9287V71.2316Z" fill="#767A93"/>
<defs>
<linearGradient id="paint0_linear_554_3074" x1="14.9976" y1="85.0872" x2="32.456" y2="85.0872" gradientUnits="userSpaceOnUse">
<stop stop-color="#CACFDD"/>
<stop offset="1" stop-color="#EEF0F1"/>
</linearGradient>
<linearGradient id="paint1_linear_554_3074" x1="44.9007" y1="45.9703" x2="73.8041" y2="45.9703" gradientUnits="userSpaceOnUse">
<stop stop-color="#CACFDD"/>
<stop offset="1" stop-color="#EEF0F1"/>
</linearGradient>
</defs>
</svg>
