<svg width="112" height="112" viewBox="0 0 112 112" fill="none" xmlns="http://www.w3.org/2000/svg">
<path d="M18.7007 32.5106H81.8823V84.4987H18.7007V32.5106Z" fill="#F5F5F5"/>
<path style="mix-blend-mode:multiply" d="M81.8845 69.4531V84.4987H71.1548C71.3567 81.2383 72.4693 78.0998 74.366 75.4401C76.2628 72.7804 78.8676 70.7062 81.8845 69.4531Z" fill="url(#paint0_linear_572_765)"/>
<path d="M26.1079 21.2362H74.4779V32.5106H26.1079V21.2362Z" fill="url(#paint1_linear_572_765)"/>
<path style="mix-blend-mode:multiply" d="M63.5665 21.2362V31.08H46.8409C44.2359 31.0742 41.7394 30.036 39.8983 28.1929C38.0573 26.3499 37.0219 23.8522 37.019 21.2471L63.5665 21.2362Z" fill="url(#paint2_linear_572_765)"/>
<path d="M9.38428 83.8424H21.164V85.1549H9.38428V83.8424Z" fill="#767A93"/>
<path d="M27.0197 16.205C26.644 16.2075 26.2722 16.1283 25.9302 15.9728C25.5881 15.8173 25.284 15.5892 25.0389 15.3044C24.7939 15.0196 24.6137 14.6849 24.5109 14.3235C24.4081 13.9621 24.3852 13.5827 24.4437 13.2115C24.5023 12.8404 24.6408 12.4864 24.8499 12.1742C25.0589 11.862 25.3333 11.599 25.6542 11.4034C25.975 11.2079 26.3345 11.0845 26.7078 11.0418C27.0811 10.9991 27.4593 11.0381 27.816 11.1562C28.4037 11.3455 28.9045 11.7385 29.228 12.2644C29.5516 12.7904 29.6766 13.4146 29.5805 14.0245C29.4844 14.6345 29.1736 15.19 28.7041 15.591C28.2345 15.992 27.6372 16.2121 27.0197 16.2115V16.205ZM27.0197 12.3375C26.7837 12.3375 26.5523 12.403 26.3512 12.5265C26.1501 12.6501 25.9872 12.827 25.8805 13.0375C25.7738 13.248 25.7275 13.484 25.7468 13.7192C25.7661 13.9545 25.8501 14.1798 25.9896 14.3701C26.1292 14.5605 26.3187 14.7085 26.5372 14.7977C26.7557 14.8869 26.9947 14.9138 27.2276 14.8755C27.4605 14.8372 27.6782 14.735 27.8565 14.5805C28.0349 14.426 28.167 14.225 28.2381 14C28.2985 13.8089 28.3131 13.6063 28.2808 13.4085C28.2484 13.2108 28.1699 13.0234 28.0517 12.8616C27.9336 12.6997 27.779 12.568 27.6004 12.4769C27.4219 12.3859 27.2245 12.3381 27.0241 12.3375H27.0197Z" fill="#767A93"/>
<path d="M15.3122 22.0937C15.1605 21.8011 15.0835 21.4755 15.0881 21.1459C15.0926 20.8164 15.1786 20.493 15.3383 20.2047C15.498 19.9164 15.7266 19.672 16.0036 19.4934C16.2805 19.3147 16.5974 19.2073 16.9259 19.1807C17.2545 19.1541 17.5845 19.2092 17.8866 19.3409C18.1887 19.4727 18.4536 19.6771 18.6576 19.936C18.8616 20.1949 18.9985 20.5002 19.056 20.8247C19.1135 21.1493 19.0899 21.483 18.9872 21.7962C18.8637 22.1697 18.633 22.4985 18.3237 22.7416C18.0144 22.9847 17.6404 23.1313 17.2483 23.163C16.8562 23.1947 16.4635 23.1102 16.1192 22.9201C15.7748 22.7299 15.4942 22.4425 15.3122 22.0937ZM17.0928 20.4947C16.9662 20.4951 16.8421 20.5305 16.7343 20.5971C16.6265 20.6636 16.5392 20.7587 16.4821 20.8717C16.4249 20.9848 16.4002 21.1115 16.4105 21.2377C16.4209 21.364 16.466 21.4849 16.5408 21.5871C16.6156 21.6894 16.7172 21.7689 16.8344 21.817C16.9516 21.8651 17.0798 21.8798 17.2049 21.8596C17.3299 21.8393 17.4469 21.7849 17.543 21.7023C17.639 21.6197 17.7104 21.5122 17.7491 21.3915C17.7815 21.288 17.7889 21.1782 17.7709 21.0712C17.7528 20.9642 17.7097 20.8629 17.6451 20.7757C17.5805 20.6885 17.4962 20.6178 17.3991 20.5693C17.302 20.5209 17.1948 20.496 17.0863 20.4969L17.0928 20.4947Z" fill="#767A93"/>
<path d="M84.9868 28.3755L88.0908 25.2715L89.0187 26.1995L85.9148 29.3034L84.9868 28.3755Z" fill="#767A93"/>
<path d="M81.1846 22.1396H82.4971V26.53H81.1846V22.1396Z" fill="#767A93"/>
<path d="M87.8804 31.5306H92.2707V32.8431H87.8804V31.5306Z" fill="#767A93"/>
<path d="M82.5385 85.155H18.0444V31.8544H82.5385V85.155ZM19.3569 83.8425H81.226V33.1669H19.3569V83.8425Z" fill="#767A93"/>
<path d="M75.1339 33.1668H25.4492V20.58H75.1339V33.1668ZM26.7617 31.8543H73.8214V21.8925H26.7617V31.8543Z" fill="#767A93"/>
<path d="M40.3726 7.875H53.8826C55.561 7.875 57.1706 8.54174 58.3574 9.72856C59.5443 10.9154 60.211 12.525 60.211 14.2034V27.7134H46.701C45.8699 27.7134 45.047 27.5497 44.2792 27.2317C43.5114 26.9137 42.8138 26.4475 42.2261 25.8599C41.6385 25.2722 41.1723 24.5746 40.8543 23.8068C40.5362 23.039 40.3726 22.2161 40.3726 21.385V7.875Z" fill="#F5F5F5"/>
<path d="M60.8672 28.3697H46.701C44.8498 28.3656 43.0756 27.6285 41.7665 26.3195C40.4575 25.0104 39.7204 23.2362 39.7163 21.385V7.21875H53.8847C55.7356 7.22337 57.5093 7.96081 58.8178 9.26976C60.1263 10.5787 60.8632 12.3526 60.8672 14.2034V28.3697ZM41.0288 8.53125V21.385C41.0329 22.8881 41.6318 24.3285 42.6946 25.3914C43.7575 26.4542 45.1979 27.0531 46.701 27.0572H59.5547V14.2034C59.5507 12.7007 58.9521 11.2606 57.8897 10.1978C56.8273 9.13502 55.3875 8.53587 53.8847 8.53125H41.0288Z" fill="#767A93"/>
<path d="M48.3086 11.6813H52.2767V23.9072H48.3086V11.6813Z" fill="#549EFF"/>
<path d="M56.4048 15.8113V19.7794H44.1788V15.8113H56.4048Z" fill="#549EFF"/>
<path d="M37.5439 68.4097H63.0414V72.8328H37.5439V68.4097Z" fill="#767A93"/>
<path d="M41.1382 72.1743H50.2907V84.4987H41.1382V72.1743Z" fill="#DEE1EC"/>
<path d="M50.2925 72.1743H59.445V84.4987H50.2925V72.1743Z" fill="#DEE1EC"/>
<path d="M50.9491 85.1549H40.4819V71.5181H50.9491V85.1549ZM41.7944 83.8424H49.6366V72.8306H41.7944V83.8424Z" fill="#767A93"/>
<path d="M60.1012 85.1549H49.6362V71.5181H60.1012V85.1549ZM50.9487 83.8424H58.7887V72.8306H50.9487V83.8424Z" fill="#767A93"/>
<path d="M25.6704 40.379H37.8876V47.915H25.6704V40.379Z" fill="#A9AFC4"/>
<path d="M44.1831 40.379H56.4003V47.915H44.1831V40.379Z" fill="#A9AFC4"/>
<path d="M62.6982 40.379H74.9154V47.915H62.6982V40.379Z" fill="#A9AFC4"/>
<path d="M25.6704 53.7841H37.8876V61.32H25.6704V53.7841Z" fill="#A9AFC4"/>
<path d="M44.1831 53.7841H56.4003V61.32H44.1831V53.7841Z" fill="#A9AFC4"/>
<path d="M62.6982 53.7841H74.9154V61.32H62.6982V53.7841Z" fill="#A9AFC4"/>
<path d="M88.5475 99.6232C96.3182 99.6232 102.618 93.3238 102.618 85.5532C102.618 77.7825 96.3182 71.4832 88.5475 71.4832C80.7769 71.4832 74.4775 77.7825 74.4775 85.5532C74.4775 93.3238 80.7769 99.6232 88.5475 99.6232Z" fill="#F5F5F5"/>
<path d="M87.8172 104.768C87.3666 104.751 86.9116 104.718 86.4632 104.67L86.6053 103.357C87.021 103.403 87.4453 103.434 87.8675 103.449L87.8172 104.768ZM90.0791 104.72L89.9763 103.408C90.3963 103.375 90.8185 103.327 91.2341 103.263L91.4375 104.563C90.9847 104.633 90.5297 104.685 90.0791 104.72ZM84.2319 104.296C83.7944 104.195 83.3569 104.077 82.9194 103.943L83.3022 102.69C83.7047 102.813 84.116 102.922 84.525 103.016L84.2319 104.296ZM93.6381 104.097L93.2903 102.832C93.695 102.721 94.1019 102.594 94.4978 102.454L94.9353 103.692C94.5153 103.841 94.08 103.978 93.6447 104.097H93.6381ZM80.791 103.156C80.3797 102.972 79.9685 102.773 79.5681 102.563L80.1828 101.404C80.5547 101.598 80.9375 101.784 81.3203 101.955L80.791 103.156ZM97.0222 102.813L96.4403 101.636C96.8188 101.45 97.1928 101.248 97.556 101.036L98.2122 102.169C97.836 102.397 97.4335 102.613 97.0288 102.813H97.0222ZM77.6344 101.391C77.2647 101.135 76.8972 100.861 76.5406 100.579L77.361 99.5553C77.6891 99.8178 78.0303 100.072 78.376 100.31L77.6344 101.391ZM74.865 99.0654C74.5478 98.746 74.2372 98.4091 73.9441 98.0657L74.9416 97.2125C75.215 97.5319 75.5038 97.8447 75.7969 98.1444L74.865 99.0654ZM72.5747 96.2654C72.3231 95.8913 72.0803 95.5019 71.8572 95.1125L72.9947 94.4563C73.2135 94.8194 73.4322 95.1825 73.6641 95.5303L72.5747 96.2654ZM70.8466 93.0847C70.6694 92.6691 70.5053 92.2404 70.3588 91.816L71.6013 91.3785C71.7369 91.7766 71.89 92.1747 72.0541 92.5619L70.8466 93.0847ZM69.7528 89.6329C69.6566 89.1953 69.5778 88.7425 69.5122 88.2963L70.8116 88.1104C70.8728 88.5282 70.9472 88.946 71.0303 89.3572L69.7528 89.6329Z" fill="#A9AFC4"/>
<path d="M88.5478 100.279C85.6351 100.28 82.7877 99.4165 80.3657 97.7986C77.9437 96.1808 76.0559 93.881 74.9409 91.1902C73.826 88.4993 73.5341 85.5383 74.102 82.6815C74.67 79.8248 76.0724 77.2006 78.1318 75.1409C80.1912 73.0812 82.8152 71.6784 85.6718 71.11C88.5285 70.5416 91.4896 70.8331 94.1806 71.9477C96.8716 73.0622 99.1716 74.9497 100.79 77.3715C102.408 79.7932 103.272 82.6405 103.272 85.5532C103.267 89.457 101.715 93.1997 98.9543 95.9603C96.194 98.7209 92.4516 100.274 88.5478 100.279ZM88.5478 72.1416C85.8946 72.1412 83.3009 72.9276 81.0947 74.4013C78.8885 75.8751 77.1688 77.97 76.1533 80.4211C75.1378 82.8722 74.872 85.5695 75.3895 88.1717C75.907 90.7739 77.1846 93.1642 79.0606 95.0403C80.9367 96.9164 83.327 98.1939 85.9292 98.7115C88.5315 99.229 91.2287 98.9631 93.6798 97.9476C96.131 96.9321 98.2259 95.2125 99.6996 93.0063C101.173 90.8 101.96 88.2063 101.959 85.5532C101.955 81.9974 100.541 78.5885 98.0267 76.0742C95.5124 73.5599 92.1035 72.1457 88.5478 72.1416Z" fill="#767A93"/>
<path d="M94.5151 82.449C94.4356 81.5833 94.1687 80.7452 93.7329 79.9929C93.2971 79.2406 92.7028 78.5921 91.9913 78.0924C91.2799 77.5927 90.4682 77.2538 89.6127 77.0991C88.7571 76.9445 87.8782 76.9778 87.0368 77.1968C86.1954 77.4158 85.4117 77.8152 84.7401 78.3673C84.0685 78.9194 83.5251 79.6111 83.1475 80.3942C82.7699 81.1773 82.5672 82.0332 82.5535 82.9025C82.5397 83.7718 82.7153 84.6337 83.0679 85.4284C83.2407 85.8659 88.307 93.7409 88.5476 94.1019C90.0789 91.7087 92.5661 87.8609 94.0164 85.4284C94.4369 84.495 94.6087 83.4686 94.5151 82.449ZM88.5476 85.2512C88.0173 85.253 87.4983 85.0973 87.0565 84.8039C86.6147 84.5105 86.2698 84.0926 86.0657 83.6031C85.8615 83.1136 85.8072 82.5745 85.9096 82.0541C86.012 81.5338 86.2665 81.0555 86.6409 80.6798C87.0154 80.3042 87.4928 80.0481 88.0129 79.944C88.5329 79.8399 89.0721 79.8925 89.5623 80.095C90.0525 80.2976 90.4715 80.641 90.7663 81.0819C91.0612 81.5227 91.2185 82.0412 91.2185 82.5715C91.218 83.2806 90.9367 83.9605 90.4361 84.4626C89.9356 84.9648 89.2566 85.2483 88.5476 85.2512Z" fill="#549EFF"/>
<defs>
<linearGradient id="paint0_linear_572_765" x1="71.1548" y1="76.9759" x2="81.8845" y2="76.9759" gradientUnits="userSpaceOnUse">
<stop stop-color="#CACFDD"/>
<stop offset="1" stop-color="#EEF0F1"/>
</linearGradient>
<linearGradient id="paint1_linear_572_765" x1="50.2929" y1="17.9878" x2="50.2929" y2="35.8159" gradientUnits="userSpaceOnUse">
<stop stop-color="#A9AFC4"/>
<stop offset="1" stop-color="#D4D8E5"/>
</linearGradient>
<linearGradient id="paint2_linear_572_765" x1="37.019" y1="26.1537" x2="63.5665" y2="26.1537" gradientUnits="userSpaceOnUse">
<stop stop-color="#CACFDD"/>
<stop offset="1" stop-color="#EEF0F1"/>
</linearGradient>
</defs>
</svg>
