<svg width="112" height="112" viewBox="0 0 112 112" fill="none" xmlns="http://www.w3.org/2000/svg">
<path d="M93.0716 22.3125V86.4741C93.071 87.5035 92.6616 88.4905 91.9335 89.2182C91.2054 89.9459 90.2182 90.3547 89.1888 90.3547H20.9388C19.9103 90.3535 18.9244 89.9442 18.1976 89.2166C17.4707 88.4889 17.0625 87.5025 17.0625 86.4741V22.3125C17.0625 21.2852 17.4698 20.2998 18.1952 19.5724C18.9206 18.8449 19.9049 18.4348 20.9322 18.4319H89.1822C89.6925 18.431 90.1979 18.5308 90.6696 18.7254C91.1413 18.92 91.57 19.2056 91.9312 19.566C92.2924 19.9265 92.5791 20.3545 92.7747 20.8258C92.9704 21.297 93.0713 21.8022 93.0716 22.3125Z" fill="#F5F5F5"/>
<path style="mix-blend-mode:multiply" d="M93.0717 70.3893V86.4762C93.0711 87.5056 92.6618 88.4926 91.9337 89.2203C91.2056 89.948 90.2183 90.3568 89.1889 90.3568H67.9548C65.8483 79.2246 74.432 68.8602 85.7874 68.8602C88.2955 68.8568 90.7767 69.3776 93.0717 70.3893Z" fill="url(#paint0_linear_572_235)"/>
<path d="M89.1888 91.0109H20.9388C19.7366 91.0086 18.5844 90.5298 17.7348 89.6793C16.8852 88.8288 16.4074 87.6762 16.4062 86.4741V22.3125C16.4074 21.1115 16.8843 19.9599 17.7325 19.1096C18.5807 18.2593 19.7312 17.7797 20.9322 17.7756H89.1822C90.3864 17.7751 91.5416 18.2526 92.394 19.1033C93.2463 19.954 93.7261 21.1083 93.7278 22.3125V86.4741C93.7261 87.6772 93.2472 88.8305 92.3963 89.681C91.5454 90.5315 90.3919 91.0098 89.1888 91.0109ZM20.9322 19.0881C20.0791 19.0916 19.2621 19.4328 18.6599 20.037C18.0577 20.6413 17.7193 21.4594 17.7188 22.3125V86.4741C17.7193 87.329 18.0592 88.1488 18.6638 88.7534C19.2684 89.358 20.0881 89.6979 20.9431 89.6984H89.1931C90.0483 89.6979 90.8683 89.358 91.4732 88.7535C92.0781 88.149 92.4185 87.3292 92.4197 86.4741V22.3125C92.4185 21.4573 92.0781 20.6375 91.4732 20.033C90.8683 19.4285 90.0483 19.0887 89.1931 19.0881H20.9322Z" fill="#767A93"/>
<path d="M93.0716 22.3125V27.0769H17.0625V22.3125C17.0625 21.2852 17.4698 20.2998 18.1952 19.5724C18.9206 18.8449 19.9049 18.4348 20.9322 18.4319H89.1822C89.6925 18.431 90.1979 18.5308 90.6696 18.7254C91.1413 18.92 91.57 19.2056 91.9312 19.566C92.2924 19.9265 92.5791 20.3545 92.7747 20.8258C92.9704 21.297 93.0713 21.8022 93.0716 22.3125Z" fill="#767A93"/>
<path d="M22.8988 24.4343C23.8266 24.4343 24.5788 23.6822 24.5788 22.7543C24.5788 21.8265 23.8266 21.0743 22.8988 21.0743C21.9709 21.0743 21.2188 21.8265 21.2188 22.7543C21.2188 23.6822 21.9709 24.4343 22.8988 24.4343Z" fill="#F5F5F5"/>
<path d="M29.2601 24.4343C30.1879 24.4343 30.9401 23.6822 30.9401 22.7543C30.9401 21.8265 30.1879 21.0743 29.2601 21.0743C28.3322 21.0743 27.5801 21.8265 27.5801 22.7543C27.5801 23.6822 28.3322 24.4343 29.2601 24.4343Z" fill="#F5F5F5"/>
<path d="M55.589 74.6199C67.5687 74.6199 77.2802 64.9084 77.2802 52.9287C77.2802 40.9489 67.5687 31.2374 55.589 31.2374C43.6092 31.2374 33.8977 40.9489 33.8977 52.9287C33.8977 64.9084 43.6092 74.6199 55.589 74.6199Z" fill="#DEE1EC"/>
<path d="M59.7188 85.2709H51.4588C50.87 85.2709 50.3052 85.037 49.8888 84.6206C49.4725 84.2042 49.2385 83.6395 49.2385 83.0506C49.2385 82.4618 49.4725 81.897 49.8888 81.4806C50.3052 81.0642 50.87 80.8303 51.4588 80.8303H59.7188C60.3077 80.8303 60.8724 81.0642 61.2888 81.4806C61.7052 81.897 61.9392 82.4618 61.9392 83.0506C61.9392 83.6395 61.7052 84.2042 61.2888 84.6206C60.8724 85.037 60.3077 85.2709 59.7188 85.2709Z" fill="#A9AFC4"/>
<path d="M85.7874 101.867C93.9966 101.867 100.651 95.2125 100.651 87.0033C100.651 78.7942 93.9966 72.1393 85.7874 72.1393C77.5782 72.1393 70.9233 78.7942 70.9233 87.0033C70.9233 95.2125 77.5782 101.867 85.7874 101.867Z" fill="#F5F5F5"/>
<path d="M85.7874 102.521C82.7176 102.522 79.7166 101.612 77.164 99.9067C74.6113 98.2015 72.6217 95.7776 71.4467 92.9415C70.2718 90.1055 69.9642 86.9847 70.563 83.9738C71.1618 80.963 72.64 78.1973 74.8107 76.0266C76.9814 73.8559 79.747 72.3777 82.7579 71.779C85.7687 71.1802 88.8895 71.4877 91.7256 72.6627C94.5616 73.8376 96.9856 75.8273 98.6908 78.3799C100.396 80.9325 101.306 83.9335 101.306 87.0033C101.302 91.1179 99.666 95.063 96.7565 97.9725C93.8471 100.882 89.902 102.518 85.7874 102.521ZM85.7874 72.7955C82.9777 72.7951 80.231 73.6277 77.8945 75.1882C75.558 76.7486 73.7366 78.9667 72.6606 81.5622C71.5846 84.1577 71.3023 87.0139 71.8493 89.7698C72.3964 92.5257 73.7483 95.0575 75.7341 97.0451C77.72 99.0328 80.2505 100.387 83.0059 100.937C85.7613 101.486 88.6178 101.207 91.2142 100.133C93.8107 99.0594 96.0305 97.24 97.5931 94.905C99.1557 92.5699 99.9909 89.8239 99.993 87.0143C99.993 83.2455 98.4968 79.6309 95.8331 76.9647C93.1694 74.2986 89.5562 72.799 85.7874 72.7955Z" fill="#767A93"/>
<path d="M53.2877 58.1546C53.322 56.5212 53.735 54.9181 54.4942 53.4715C55.2534 52.0249 56.338 50.7742 57.6627 49.818C58.1525 49.4666 58.5453 48.9969 58.8047 48.4528C59.064 47.9086 59.1815 47.3077 59.1461 46.706C59.1107 46.1042 58.9236 45.5212 58.6022 45.0112C58.2808 44.5013 57.8356 44.0809 57.308 43.7893C56.7804 43.4978 56.1876 43.3444 55.5848 43.3436C54.982 43.3428 54.3888 43.4946 53.8605 43.7848C53.3321 44.0749 52.8858 44.4941 52.563 45.0032C52.2403 45.5123 52.0516 46.0948 52.0146 46.6965H47.4121C47.4493 45.305 47.841 43.9461 48.5501 42.7484C49.2592 41.5506 50.2623 40.5536 51.4644 39.8518C52.6664 39.15 54.0277 38.7666 55.4193 38.7378C56.811 38.7091 58.1869 39.036 59.4169 39.6875C60.6469 40.3391 61.6903 41.2938 62.4483 42.4613C63.2063 43.6287 63.6537 44.9703 63.7484 46.359C63.843 47.7477 63.5817 49.1376 62.9891 50.3971C62.3965 51.6566 61.4923 52.7441 60.3621 53.5565C59.6293 54.0847 59.0265 54.7729 58.5993 55.5689C58.1722 56.3648 57.9319 57.2476 57.8968 58.1502L53.2877 58.1546Z" fill="#767A93"/>
<path d="M53.2285 62.4924H57.8573V67.1212H53.2285V62.4924Z" fill="#767A93"/>
<path d="M89.6525 88.4384C90.5102 87.0448 90.8263 85.3848 90.5409 83.7735C90.2555 82.1622 89.3885 80.7117 88.1043 79.6974C86.8202 78.6831 85.2084 78.1756 83.5748 78.2712C81.9412 78.3667 80.3996 79.0587 79.2425 80.2158C78.0854 81.3729 77.3933 82.9146 77.2978 84.5482C77.2022 86.1818 77.7097 87.7936 78.724 89.0777C79.7383 90.3619 81.1888 91.2289 82.8001 91.5143C84.4114 91.7997 86.0714 91.4836 87.465 90.6259C88.8366 92.9578 89.9982 93.9794 91.9778 95.959C93.1672 95.1501 94.18 94.1083 94.955 92.8965C93.0103 90.9781 91.9778 89.8078 89.6525 88.4384ZM86.3713 87.3447C85.8959 87.8179 85.2909 88.1396 84.6328 88.2693C83.9746 88.3991 83.2928 88.3309 82.6734 88.0735C82.054 87.816 81.5247 87.3809 81.1523 86.8229C80.78 86.265 80.5813 85.6092 80.5813 84.9384C80.5813 84.2676 80.78 83.6119 81.1523 83.0539C81.5247 82.496 82.054 82.0608 82.6734 81.8034C83.2928 81.5459 83.9746 81.4778 84.6328 81.6075C85.2909 81.7372 85.8959 82.059 86.3713 82.5322C86.6872 82.8485 86.9377 83.2241 87.1082 83.6374C87.2787 84.0507 87.3659 84.4936 87.3649 84.9407C87.3639 85.3878 87.2746 85.8303 87.1023 86.2428C86.9299 86.6553 86.6777 87.0298 86.3603 87.3447H86.3713Z" fill="#FF7875"/>
<path d="M73.7517 100.507H72.4392V99.1943H73.7517V100.507ZM70.2517 100.507H68.9392V99.1943H70.2517V100.507ZM66.7517 100.507H65.4392V99.1943H66.7517V100.507ZM63.2517 100.507H61.9392V99.1943H63.2517V100.507ZM59.7517 100.507H58.4392V99.1943H59.7517V100.507ZM56.2517 100.507H54.9392V99.1943H56.2517V100.507ZM52.7517 100.507H51.4392V99.1943H52.7517V100.507ZM49.2517 100.507H47.9392V99.1943H49.2517V100.507ZM45.7517 100.507H44.4392V99.1943H45.7517V100.507ZM42.2517 100.507H40.9392V99.1943H42.2517V100.507Z" fill="#A9AFC4"/>
<path d="M42.2561 97.2277H40.9436V95.9152H42.2561V97.2277ZM42.2561 93.7277H40.9436V92.5137H42.2561V93.7277Z" fill="#A9AFC4"/>
<path d="M94.6516 15.983L97.5715 13.0631L98.4995 13.9911L95.5795 16.911L94.6516 15.983Z" fill="#767A93"/>
<path d="M91.0569 10.1346H92.3694V14.2646H91.0569V10.1346Z" fill="#767A93"/>
<path d="M97.3965 18.9283H101.526V20.2408H97.3965V18.9283Z" fill="#767A93"/>
<path d="M11.8804 93.8218C11.4723 93.8222 11.0731 93.7016 10.7336 93.4751C10.394 93.2486 10.1293 92.9264 9.97287 92.5494C9.81647 92.1724 9.77544 91.7574 9.85496 91.3571C9.93448 90.9567 10.131 90.589 10.4196 90.3004C10.7082 90.0117 11.076 89.8152 11.4763 89.7357C11.8767 89.6562 12.2916 89.6972 12.6687 89.8536C13.0457 90.01 13.3678 90.2747 13.5943 90.6143C13.8208 90.9539 13.9415 91.353 13.9411 91.7612C13.9399 92.3073 13.7224 92.8308 13.3362 93.217C12.95 93.6032 12.4266 93.8206 11.8804 93.8218ZM11.8804 91.0109C11.7319 91.0104 11.5867 91.0541 11.463 91.1362C11.3393 91.2184 11.2428 91.3355 11.1857 91.4725C11.1285 91.6096 11.1134 91.7605 11.1421 91.9062C11.1708 92.0519 11.2421 92.1858 11.3469 92.2909C11.4518 92.3961 11.5855 92.4678 11.7311 92.4969C11.8767 92.526 12.0276 92.5113 12.1649 92.4546C12.3021 92.3978 12.4194 92.3017 12.502 92.1782C12.5845 92.0548 12.6286 91.9097 12.6286 91.7612C12.628 91.5627 12.549 91.3725 12.4089 91.232C12.2688 91.0915 12.0789 91.012 11.8804 91.0109Z" fill="#767A93"/>
<path d="M21.4595 101.115C20.9004 101.116 20.3535 100.951 19.8882 100.641C19.4228 100.331 19.0599 99.8896 18.8453 99.3732C18.6307 98.8569 18.5741 98.2885 18.6827 97.74C18.7912 97.1914 19.0601 96.6874 19.4551 96.2917C19.8502 95.896 20.3538 95.6264 20.9022 95.517C21.4505 95.4076 22.019 95.4633 22.5357 95.6771C23.0524 95.8909 23.494 96.2531 23.8048 96.718C24.1155 97.1829 24.2814 97.7295 24.2814 98.2887C24.2808 99.0373 23.9835 99.7552 23.4545 100.285C22.9256 100.815 22.2082 101.113 21.4595 101.115ZM21.4595 96.7771C21.16 96.7767 20.867 96.8651 20.6177 97.0313C20.3684 97.1975 20.1741 97.4339 20.0592 97.7105C19.9444 97.9872 19.9142 98.2918 19.9726 98.5856C20.0309 98.8795 20.1751 99.1494 20.387 99.3612C20.5988 99.5731 20.8687 99.7173 21.1626 99.7756C21.4564 99.834 21.761 99.8038 22.0376 99.6889C22.3143 99.5741 22.5507 99.3797 22.7169 99.1305C22.8831 98.8812 22.9715 98.5882 22.9711 98.2887C22.9705 97.8879 22.8111 97.5038 22.5277 97.2205C22.2444 96.9371 21.8602 96.7777 21.4595 96.7771Z" fill="#767A93"/>
<path d="M42.2561 88.34H40.9436V87.0275H42.2561V88.34ZM42.2561 84.84H40.9436V83.5275H42.2561V84.84ZM42.2561 81.34H40.9436V80.0275H42.2561V81.34ZM42.2561 77.84H40.9436V76.5275H42.2561V77.84ZM42.2561 74.34H40.9436V73.0275H42.2561V74.34Z" fill="#A9AFC4"/>
<defs>
<linearGradient id="paint0_linear_572_235" x1="67.6355" y1="79.6074" x2="93.0717" y2="79.6074" gradientUnits="userSpaceOnUse">
<stop stop-color="#CACFDD"/>
<stop offset="1" stop-color="#EEF0F1"/>
</linearGradient>
</defs>
</svg>
