<svg width="16" height="16" viewBox="0 0 16 16" fill="none" xmlns="http://www.w3.org/2000/svg">
<path fill-rule="evenodd" clip-rule="evenodd" d="M8.00004 2.08337C7.65902 2.08337 7.32531 2.11273 7.00104 2.16895C6.59292 2.2397 6.20471 1.96621 6.13395 1.55808C6.0632 1.14996 6.33669 0.761748 6.74482 0.690994C7.15331 0.620177 7.57274 0.583374 8.00004 0.583374C8.42734 0.583374 8.84677 0.620177 9.25526 0.690994C9.66339 0.761748 9.93688 1.14996 9.86613 1.55808C9.79537 1.96621 9.40716 2.2397 8.99904 2.16895C8.67477 2.11273 8.34106 2.08337 8.00004 2.08337ZM11.2754 2.15921C11.5197 1.82468 11.9889 1.75151 12.3234 1.99577C13.0004 2.49008 13.5915 3.09706 14.0705 3.78939C14.3062 4.13 14.2212 4.5972 13.8806 4.8329C13.54 5.06859 13.0728 4.98354 12.8371 4.64293C12.4529 4.08778 11.9795 3.602 11.4389 3.2072C11.1043 2.96294 11.0312 2.49373 11.2754 2.15921ZM4.72466 2.15921C4.96892 2.49374 4.89575 2.96294 4.56122 3.2072C4.02054 3.602 3.54716 4.08778 3.16301 4.64293C2.92731 4.98354 2.46012 5.0686 2.1195 4.8329C1.77889 4.5972 1.69383 4.13 1.92953 3.78939C2.40861 3.09706 2.9997 2.49008 3.67666 1.99578C4.01119 1.75151 4.48039 1.82468 4.72466 2.15921ZM14.4536 6.25298C14.8623 6.18585 15.2481 6.46277 15.3152 6.87151C15.382 7.27831 15.4167 7.69568 15.4167 8.12072C15.4167 8.62629 15.3676 9.12097 15.2738 9.59987C15.1942 10.0064 14.8001 10.2713 14.3936 10.1917C13.9871 10.1121 13.7222 9.71799 13.8018 9.3115C13.8771 8.92714 13.9167 8.52903 13.9167 8.12072C13.9167 7.77741 13.8887 7.44134 13.835 7.11462C13.7679 6.70588 14.0448 6.32011 14.4536 6.25298ZM1.54652 6.25298C1.95526 6.32011 2.23218 6.70588 2.16505 7.11462C2.11138 7.44134 2.08337 7.77741 2.08337 8.12072C2.08337 8.52903 2.123 8.92714 2.19829 9.3115C2.27793 9.71799 2.01296 10.1121 1.60647 10.1917C1.19999 10.2713 0.805908 10.0064 0.726275 9.59988C0.632455 9.12097 0.583374 8.62629 0.583374 8.12072C0.583374 7.69568 0.618064 7.27831 0.684879 6.87151C0.752012 6.46277 1.13778 6.18585 1.54652 6.25298ZM2.52724 12.0702C2.83893 11.7974 3.31276 11.8289 3.58557 12.1406C3.84831 12.4408 4.13986 12.7139 4.45563 12.9553C4.78466 13.2069 4.84741 13.6777 4.59579 14.0067C4.34417 14.3357 3.87346 14.3985 3.54443 14.1468C3.14916 13.8446 2.78482 13.5032 2.45685 13.1285C2.18404 12.8168 2.21556 12.343 2.52724 12.0702ZM13.4728 12.0702C13.7845 12.343 13.816 12.8168 13.5432 13.1285C13.2153 13.5032 12.8509 13.8446 12.4556 14.1468C12.1266 14.3985 11.6559 14.3357 11.4043 14.0067C11.1527 13.6777 11.2154 13.2069 11.5445 12.9553C11.8602 12.7139 12.1518 12.4408 12.4145 12.1406C12.6873 11.8289 13.1612 11.7974 13.4728 12.0702Z" fill="#8E939E"/>
<path d="M10 8.22222C10 9.44952 8 14 8 14C8 14 6 9.44952 6 8.22222C6 6.99492 6.89543 6 8 6C9.10457 6 10 6.99492 10 8.22222Z" stroke="#8E939E" stroke-width="1.5" stroke-linecap="round" stroke-linejoin="round"/>
</svg>
