<svg width="24" height="24" viewBox="0 0 24 24" fill="none" xmlns="http://www.w3.org/2000/svg">
<g clip-path="url(#clip0_561_1374)">
<path d="M22 12C22 17.5228 17.5228 22 12 22C6.47715 22 2 17.5228 2 12C2 6.47715 6.47715 2 12 2C17.5228 2 22 6.47715 22 12Z" fill="#DB1F25"/>
<path d="M16.0347 9.02594C16.3276 8.73305 16.3276 8.25818 16.0347 7.96528C15.7418 7.67239 15.267 7.67239 14.9741 7.96528L12 10.9393L9.02594 7.96528C8.73305 7.67239 8.25818 7.67239 7.96528 7.96528C7.67239 8.25818 7.67239 8.73305 7.96528 9.02594L10.9393 12L7.96528 14.9741C7.67238 15.267 7.67238 15.7418 7.96528 16.0347C8.25817 16.3276 8.73304 16.3276 9.02594 16.0347L12 13.0607L14.9741 16.0347C15.267 16.3276 15.7418 16.3276 16.0347 16.0347C16.3276 15.7418 16.3276 15.267 16.0347 14.9741L13.0607 12L16.0347 9.02594Z" fill="white"/>
</g>
<defs>
<clipPath id="clip0_561_1374">
<rect width="24" height="24" fill="white"/>
</clipPath>
</defs>
</svg>
