<svg width="14" height="14" viewBox="0 0 14 14" fill="none" xmlns="http://www.w3.org/2000/svg">
<path fill-rule="evenodd" clip-rule="evenodd" d="M4.61991 2.71374L6.6038 0.191008C6.80395 -0.0635069 7.19595 -0.0635062 7.3961 0.191008L9.38 2.71374C9.63317 3.03568 9.3988 3.50208 8.98384 3.50208H7.75001V8.24994H10.75V6.99994H10.5C10.2239 6.99994 10 6.77608 10 6.49994V4.49994C10 4.2238 10.2239 3.99994 10.5 3.99994H12.5C12.7761 3.99994 13 4.2238 13 4.49994V6.49994C13 6.77608 12.7761 6.99994 12.5 6.99994H12.25V8.99994C12.25 9.41415 11.9142 9.74994 11.5 9.74994H7.75001V11.2006C8.19836 11.46 8.5 11.9447 8.5 12.4999C8.5 13.3284 7.82843 13.9999 7 13.9999C6.17157 13.9999 5.5 13.3284 5.5 12.4999C5.5 11.9447 5.80165 11.46 6.25001 11.2006V9.74994H2.5C2.08579 9.74994 1.75 9.41415 1.75 8.99994V6.79926C1.30165 6.53991 1 6.05515 1 5.49994C1 4.67151 1.67157 3.99994 2.5 3.99994C3.32843 3.99994 4 4.67151 4 5.49994C4 6.05515 3.69835 6.53991 3.25 6.79926V8.24994H6.25001V3.50208H5.01606C4.6011 3.50208 4.36673 3.03568 4.61991 2.71374Z" fill="#28B84F"/>
</svg>
