<svg width="98" height="85" viewBox="0 0 98 85" fill="none" xmlns="http://www.w3.org/2000/svg">
<path d="M80.5897 75.3096H4.90219C3.83311 75.3067 2.8088 74.88 2.05387 74.123C1.29894 73.366 0.874996 72.3406 0.875 71.2715V24.4677C0.876739 23.3981 1.30302 22.3729 2.06019 21.6174C2.81736 20.8618 3.84349 20.4378 4.91313 20.4384H84.6256V71.2715C84.6256 72.3421 84.2005 73.3689 83.4437 74.1261C82.6868 74.8833 81.6603 75.309 80.5897 75.3096Z" fill="#F5F5F5"/>
<path d="M84.6278 24.4699V30.8596H0.875V24.4699C0.87616 23.3999 1.30219 22.3741 2.05942 21.6181C2.81665 20.8621 3.84311 20.4378 4.91312 20.4384H80.5875C81.6577 20.4378 82.6844 20.8621 83.442 21.618C84.1996 22.3739 84.6261 23.3997 84.6278 24.4699Z" fill="#767A93"/>
<path style="mix-blend-mode:multiply" d="M84.6277 24.4699V30.6693H70.3083C69.1975 30.6701 68.1061 30.3783 67.1438 29.8233C66.1816 29.2683 65.3825 28.4696 64.827 27.5077C64.2715 26.5457 63.9792 25.4544 63.9795 24.3436C63.9798 23.2327 64.2727 22.1416 64.8287 21.1799L65.2662 20.4318H80.5874C81.1179 20.4315 81.6432 20.5357 82.1334 20.7385C82.6236 20.9413 83.069 21.2387 83.4442 21.6137C83.8194 21.9887 84.1171 22.434 84.3201 22.9241C84.5232 23.4141 84.6277 23.9394 84.6277 24.4699Z" fill="url(#paint0_linear_572_1410)"/>
<path d="M13.9432 15.6367C13.5274 15.6372 13.1207 15.5143 12.7747 15.2835C12.4287 15.0528 12.159 14.7246 11.9995 14.3405C11.8401 13.9565 11.7981 13.5337 11.879 13.1258C11.9599 12.7179 12.1599 12.3431 12.4538 12.0489C12.7477 11.7547 13.1223 11.5542 13.5301 11.4729C13.938 11.3916 14.3608 11.4331 14.745 11.5922C15.1293 11.7512 15.4577 12.0207 15.6888 12.3664C15.9199 12.7122 16.0432 13.1187 16.0432 13.5346C16.0427 14.0915 15.8213 14.6256 15.4277 15.0196C15.034 15.4137 14.5002 15.6356 13.9432 15.6367ZM13.9432 12.7471C13.7869 12.7466 13.6339 12.7926 13.5037 12.8792C13.3735 12.9658 13.2719 13.0891 13.2119 13.2335C13.1519 13.3779 13.136 13.5369 13.1664 13.6903C13.1968 13.8437 13.2721 13.9846 13.3827 14.0951C13.4932 14.2057 13.6341 14.281 13.7875 14.3114C13.9409 14.3418 14.0999 14.3259 14.2443 14.2659C14.3887 14.2059 14.512 14.1043 14.5986 13.9741C14.6852 13.8439 14.7312 13.6909 14.7307 13.5346C14.7302 13.3259 14.647 13.1259 14.4995 12.9783C14.3519 12.8308 14.1519 12.7476 13.9432 12.7471Z" fill="#767A93"/>
<path d="M26.0313 9.73053C25.4593 9.73053 24.9002 9.56092 24.4246 9.24316C23.9491 8.9254 23.5784 8.47375 23.3595 7.94533C23.1407 7.41691 23.0834 6.83545 23.195 6.27448C23.3066 5.71351 23.582 5.19823 23.9864 4.79379C24.3909 4.38935 24.9061 4.11393 25.4671 4.00235C26.0281 3.89076 26.6095 3.94803 27.138 4.16691C27.6664 4.38579 28.118 4.75645 28.4358 5.23201C28.7536 5.70758 28.9232 6.2667 28.9232 6.83865C28.9226 7.60545 28.6177 8.34067 28.0755 8.88288C27.5333 9.42509 26.7981 9.72995 26.0313 9.73053ZM26.0313 5.25928C25.7189 5.25928 25.4136 5.35191 25.1538 5.52545C24.8941 5.699 24.6917 5.94566 24.5721 6.23425C24.4526 6.52285 24.4213 6.84041 24.4823 7.14678C24.5432 7.45314 24.6936 7.73456 24.9145 7.95544C25.1354 8.17632 25.4168 8.32674 25.7232 8.38768C26.0295 8.44862 26.3471 8.41735 26.6357 8.29781C26.9243 8.17827 27.1709 7.97583 27.3445 7.71611C27.518 7.45638 27.6107 7.15103 27.6107 6.83865C27.6101 6.41996 27.4435 6.01857 27.1474 5.72251C26.8514 5.42644 26.45 5.25986 26.0313 5.25928Z" fill="#767A93"/>
<path d="M86.6018 78.4788L87.5297 77.5508L90.5656 80.5867L89.6377 81.5147L86.6018 78.4788Z" fill="#767A93"/>
<path d="M89.3374 73.8134H93.6315V75.1259H89.3374V73.8134Z" fill="#767A93"/>
<path d="M83.1492 80.3781H84.4617V84.6721H83.1492V80.3781Z" fill="#767A93"/>
<path d="M80.5897 75.9659H4.90219C3.65959 75.9612 2.46937 75.4648 1.59174 74.5851C0.714115 73.7055 0.220476 72.5141 0.21875 71.2715V24.4677C0.222222 23.2246 0.7182 22.0335 1.59806 21.1552C2.47793 20.277 3.66997 19.7833 4.91313 19.7821H85.2819V71.2715C85.2807 72.5158 84.7861 73.7088 83.9064 74.5888C83.0268 75.4689 81.834 75.9641 80.5897 75.9659ZM4.91313 21.0946C4.01789 21.0952 3.15935 21.4505 2.5255 22.0827C1.89165 22.7149 1.53414 23.5725 1.53125 24.4677V71.2715C1.53241 72.168 1.88908 73.0276 2.52306 73.6615C3.15703 74.2955 4.01655 74.6522 4.91313 74.6534H80.6006C81.497 74.6522 82.3563 74.2955 82.9899 73.6614C83.6236 73.0274 83.9797 72.1678 83.9803 71.2715V21.0946H4.91313Z" fill="#767A93"/>
<path d="M7.3107 27.4689C8.31828 27.4689 9.13508 26.6521 9.13508 25.6446C9.13508 24.637 8.31828 23.8202 7.3107 23.8202C6.30313 23.8202 5.48633 24.637 5.48633 25.6446C5.48633 26.6521 6.30313 27.4689 7.3107 27.4689Z" fill="#F5F5F5"/>
<path d="M14.3214 27.4689C15.329 27.4689 16.1458 26.6521 16.1458 25.6446C16.1458 24.637 15.329 23.8202 14.3214 23.8202C13.3139 23.8202 12.4971 24.637 12.4971 25.6446C12.4971 26.6521 13.3139 27.4689 14.3214 27.4689Z" fill="#F5F5F5"/>
<path d="M67.0403 70.5495H77.6563C78.5097 70.5495 79.3281 70.2105 79.9316 69.607C80.535 69.0036 80.8741 68.1851 80.8741 67.3317C80.8741 66.4783 80.535 65.6598 79.9316 65.0564C79.3281 64.4529 78.5097 64.1139 77.6563 64.1139H67.0403C66.1869 64.1139 65.3684 64.4529 64.765 65.0564C64.1615 65.6598 63.8225 66.4783 63.8225 67.3317C63.8225 68.1851 64.1615 69.0036 64.765 69.607C65.3684 70.2105 66.1869 70.5495 67.0403 70.5495Z" fill="#FF7875"/>
<path d="M44.8787 70.5495H55.4903C56.3437 70.5495 57.1621 70.2105 57.7656 69.607C58.3691 69.0036 58.7081 68.1851 58.7081 67.3317C58.7081 66.4783 58.3691 65.6598 57.7656 65.0564C57.1621 64.4529 56.3437 64.1139 55.4903 64.1139H44.8787C44.0253 64.1139 43.2068 64.4529 42.6034 65.0564C41.9999 65.6598 41.6609 66.4783 41.6609 67.3317C41.6609 68.1851 41.9999 69.0036 42.6034 69.607C43.2068 70.2105 44.0253 70.5495 44.8787 70.5495Z" fill="#A9AFC4"/>
<path d="M84.9953 2.40456L96.6503 22.5952C96.9573 23.127 97.119 23.7302 97.1192 24.3443C97.1194 24.9584 96.958 25.5617 96.6512 26.0936C96.3444 26.6256 95.9031 27.0675 95.3715 27.3749C94.84 27.6824 94.2369 27.8446 93.6228 27.8452H70.3084C69.6942 27.8449 69.0908 27.683 68.5589 27.3757C68.027 27.0685 67.5854 26.6266 67.2784 26.0946C66.9714 25.5626 66.8098 24.9591 66.8098 24.3448C66.8099 23.7306 66.9716 23.1271 67.2787 22.5952L78.9359 2.40675C79.2431 1.87523 79.6847 1.43385 80.2164 1.12692C80.748 0.819993 81.3511 0.658303 81.965 0.658081C82.5789 0.65786 83.182 0.819113 83.7139 1.12566C84.2458 1.43221 84.6877 1.87326 84.9953 2.40456Z" fill="#F5F5F5"/>
<path d="M93.6249 28.4971H70.3084C69.5799 28.4951 68.8648 28.3018 68.2346 27.9364C67.6045 27.5711 67.0814 27.0465 66.7178 26.4153C66.3542 25.7841 66.1629 25.0684 66.1631 24.34C66.1632 23.6115 66.3548 22.8959 66.7187 22.2649L78.3737 2.07643C78.7386 1.44506 79.2632 0.920815 79.8948 0.556343C80.5265 0.191871 81.2429 0 81.9721 0C82.7013 0 83.4177 0.191871 84.0494 0.556343C84.681 0.920815 85.2056 1.44506 85.5705 2.07643L97.2255 22.2649C97.5898 22.8967 97.7814 23.6133 97.7811 24.3427C97.7808 25.072 97.5885 25.7885 97.2237 26.42C96.8588 27.0515 96.3342 27.5759 95.7025 27.9405C95.0708 28.3051 94.3543 28.497 93.6249 28.4971ZM79.5046 2.73268L67.8474 22.9211C67.5984 23.3532 67.4675 23.8432 67.4677 24.3419C67.4679 24.8406 67.5992 25.3305 67.8485 25.7624C68.0978 26.1944 68.4564 26.5531 68.8881 26.8027C69.3199 27.0523 69.8096 27.184 70.3084 27.1846H93.6249C94.1236 27.184 94.6134 27.0523 95.0452 26.8027C95.4769 26.5531 95.8354 26.1944 96.0847 25.7624C96.334 25.3305 96.4654 24.8406 96.4656 24.3419C96.4658 23.8432 96.3348 23.3532 96.0859 22.9211L84.4374 2.73268C84.1883 2.29866 83.8291 1.93806 83.396 1.68729C82.963 1.43652 82.4714 1.30447 81.971 1.30447C81.4706 1.30447 80.979 1.43652 80.546 1.68729C80.1129 1.93806 79.7537 2.29866 79.5046 2.73268Z" fill="#767A93"/>
<path d="M79.6753 7.86239V14.2083L80.3906 18.1699H81.9612V18.1721L83.534 18.1699L84.2515 14.204L84.2559 7.85364L79.6753 7.86239Z" fill="#FF7875"/>
<path d="M80.2441 20.9983H83.6829V24.437H80.2441V20.9983Z" fill="#FF7875"/>
<path d="M27.5996 36.2299H77.7896V38.7652H27.5996V36.2299Z" fill="#DEE1EC"/>
<path d="M27.5996 48.8298H77.7896V51.3651H27.5996V48.8298Z" fill="#DEE1EC"/>
<path d="M8.32129 42.3702H54.9916V44.9056H8.32129V42.3702Z" fill="#DEE1EC"/>
<path d="M8.32129 54.9702H54.9916V57.5055H8.32129V54.9702Z" fill="#DEE1EC"/>
<path d="M8.32129 36.2299H22.8572V38.7652H8.32129V36.2299Z" fill="#DEE1EC"/>
<path d="M8.32129 48.8298H22.8572V51.3651H8.32129V48.8298Z" fill="#DEE1EC"/>
<path d="M93.7759 59.2687H92.4634V57.9562H93.7759V59.2687ZM93.7759 55.7687H92.4634V54.4562H93.7759V55.7687ZM93.7759 52.2687H92.4634V50.9562H93.7759V52.2687ZM93.7759 48.7687H92.4634V47.4562H93.7759V48.7687ZM93.7759 45.2687H92.4634V43.9562H93.7759V45.2687ZM93.7759 41.7687H92.4634V40.4562H93.7759V41.7687ZM93.7759 38.2687H92.4634V36.9562H93.7759V38.2687ZM93.7759 34.7687H92.4634V33.4562H93.7759V34.7687Z" fill="#A9AFC4"/>
<path d="M88.9197 58.0107H90.2322V59.3232H88.9197V58.0107Z" fill="#A9AFC4"/>
<defs>
<linearGradient id="paint0_linear_572_1410" x1="63.9712" y1="25.5505" x2="84.6277" y2="25.5505" gradientUnits="userSpaceOnUse">
<stop stop-color="#CACFDD"/>
<stop offset="1" stop-color="#EEF0F1"/>
</linearGradient>
</defs>
</svg>
