<svg width="14" height="14" viewBox="0 0 14 14" fill="none" xmlns="http://www.w3.org/2000/svg">
<path d="M3.92992 3.10494C3.70211 2.87713 3.33277 2.87713 3.10496 3.10494C2.87715 3.33274 2.87715 3.70209 3.10496 3.92989L6.19124 7.01617L3.10495 10.1025C2.87715 10.3303 2.87715 10.6996 3.10495 10.9274C3.33276 11.1552 3.7021 11.1552 3.92991 10.9274L7.01619 7.84113L10.1025 10.9274C10.3303 11.1552 10.6996 11.1552 10.9274 10.9274C11.1552 10.6996 11.1552 10.3303 10.9274 10.1025L7.84115 7.01617L10.9274 3.92989C11.1552 3.70209 11.1552 3.33274 10.9274 3.10494C10.6996 2.87713 10.3303 2.87713 10.1025 3.10494L7.01619 6.19121L3.92992 3.10494Z" fill="#8492A6"/>
</svg>
