<svg width="16" height="16" viewBox="0 0 16 16" fill="none" xmlns="http://www.w3.org/2000/svg">
<g clip-path="url(#clip0_757_5629)">
<path d="M7.99998 4.50016C7.53974 4.50016 7.16665 4.87326 7.16665 5.3335C7.16665 5.79373 7.53974 6.16683 7.99998 6.16683C8.46022 6.16683 8.83331 5.79373 8.83331 5.3335C8.83331 4.87326 8.46022 4.50016 7.99998 4.50016Z" fill="#DB1F25"/>
<path d="M8.66665 10.6668C8.66665 11.0335 8.36665 11.3335 7.99998 11.3335C7.63331 11.3335 7.33331 11.0335 7.33331 10.6668V8.00016C7.33331 7.6335 7.63331 7.3335 7.99998 7.3335C8.36665 7.3335 8.66665 7.6335 8.66665 8.00016V10.6668Z" fill="#DB1F25"/>
<path fill-rule="evenodd" clip-rule="evenodd" d="M7.99998 1.3335C4.31979 1.3335 1.33331 4.31997 1.33331 8.00016C1.33331 11.6804 4.31979 14.6668 7.99998 14.6668C11.6802 14.6668 14.6666 11.6804 14.6666 8.00016C14.6666 4.31997 11.6802 1.3335 7.99998 1.3335ZM2.66665 8.00016C2.66665 5.05635 5.05617 2.66683 7.99998 2.66683C10.9438 2.66683 13.3333 5.05635 13.3333 8.00016C13.3333 10.944 10.9438 13.3335 7.99998 13.3335C5.05617 13.3335 2.66665 10.944 2.66665 8.00016Z" fill="#DB1F25"/>
</g>
<defs>
<clipPath id="clip0_757_5629">
<rect width="16" height="16" fill="white"/>
</clipPath>
</defs>
</svg>
