<svg width="56" height="56" viewBox="0 0 56 56" fill="none" xmlns="http://www.w3.org/2000/svg">
<rect width="55.9987" height="56" rx="16" fill="url(#paint0_linear_123_724)"/>
<g clip-path="url(#clip0_123_724)">
<path d="M21.1914 15.7889L23.7784 18.3042L23.8275 10L26.8125 10.0174L26.7511 20.4224C26.747 21.2615 26.2435 22.0136 25.4689 22.3391C25.2069 22.4496 24.9327 22.5018 24.6594 22.5018C24.1263 22.5018 23.6024 22.2971 23.2033 21.9103L19.11 17.9296L21.1914 15.7889Z" fill="white"/>
<path d="M31.8195 14.5517L31.8697 18.1609H31.8707L37.7772 12.3219L39.875 14.4453L32.4744 21.7609C32.0753 22.1549 31.5453 22.3646 31.006 22.3646C30.7389 22.3646 30.4698 22.3135 30.2129 22.2081C29.4362 21.8898 28.9266 21.1418 28.9143 20.3027L28.8345 14.5926L31.8195 14.5517Z" fill="white"/>
<path d="M16.123 41.5537L23.5235 34.2391C23.9226 33.8451 24.4527 33.6354 24.992 33.6354C25.2581 33.6354 25.5272 33.6865 25.784 33.7919C26.5618 34.1102 27.0714 34.8582 27.0826 35.6973L27.1624 41.4074L24.1774 41.4483L24.1273 37.8391L18.2208 43.6771L16.123 41.5537Z" fill="white"/>
<path d="M35.6969 28.9148C34.8567 28.9271 34.1087 29.4367 33.7915 30.2134C33.4732 30.9901 33.6492 31.8783 34.2386 32.4749L41.5543 39.8755L43.6776 37.7767L37.8397 31.8702L41.4479 31.82L41.4069 28.834L35.6979 28.9138L35.6969 28.9148Z" fill="white"/>
<path d="M18.1594 24.1278L12.3214 18.2223L14.4447 16.1235L21.7604 23.522C22.3508 24.1206 22.5258 25.0078 22.2076 25.7845C21.8893 26.5623 21.1413 27.0708 20.3022 27.0831L14.5931 27.1629L14.5512 24.1779L18.1594 24.1278Z" fill="white"/>
<path d="M30.5291 33.6599C29.7545 33.9853 29.252 34.7375 29.2469 35.5766L29.1865 45.9826L32.1715 46L32.2196 37.6959L34.8065 40.2112L36.888 38.0704L32.7947 34.0897C32.3956 33.7019 31.8717 33.4972 31.3386 33.4972C31.0664 33.4972 30.7911 33.5504 30.5291 33.661V33.6599Z" fill="white"/>
<path d="M34.0892 23.2048C33.5039 23.8055 33.3351 24.6957 33.6594 25.4694C33.9838 26.243 34.736 26.7475 35.5761 26.7526L45.9821 26.813L45.9995 23.828L37.6943 23.7799L40.2107 21.1929L38.0709 19.1126L34.0903 23.2058L34.0892 23.2048Z" fill="white"/>
<path d="M18.3037 32.2191L9.99951 32.172L10.0169 29.186L20.4219 29.2464C21.262 29.2515 22.0142 29.755 22.3386 30.5296C22.663 31.3032 22.4941 32.1935 21.9078 32.7942L17.9281 36.8874L15.7884 34.806L18.3037 32.2191Z" fill="white"/>
</g>
<defs>
<linearGradient id="paint0_linear_123_724" x1="55.9987" y1="1.79024e-05" x2="-0.00127288" y2="55.9987" gradientUnits="userSpaceOnUse">
<stop stop-color="#00B1FF"/>
<stop offset="1" stop-color="#025EFC"/>
</linearGradient>
<clipPath id="clip0_123_724">
<rect width="36" height="36" fill="white" transform="translate(9.99951 10)"/>
</clipPath>
</defs>
</svg>
