<svg width="41" height="40" viewBox="0 0 41 40" fill="none" xmlns="http://www.w3.org/2000/svg"><g clip-path="url(#clip0_516_23454)"><path d="M12.3102 16.6083C11.4549 16.7641 10.6212 17.0216 9.82705 17.3755C9.03004 17.735 8.27793 18.1867 7.58614 18.7214C6.92916 18.0142 6.38039 17.2137 5.9576 16.3459C5.52684 15.4775 5.21882 14.5534 5.0424 13.6003C5.82349 13.0605 6.67483 12.6303 7.57268 12.3217C8.5057 12.0006 9.48047 11.817 10.4664 11.7766C10.5738 12.6324 10.7816 13.4727 11.0855 14.2799C11.3952 15.104 11.8066 15.8862 12.3102 16.6083Z" fill="#2265C6"/><path d="M17.1151 11.8035L17.1166 11.7953L17.1285 11.8035H17.1151Z" fill="#2265C6"/><path d="M17.1166 11.7953C15.68 10.8067 14.0271 10.1772 12.2968 9.95962C12.3339 8.99485 12.5107 8.04055 12.8217 7.12651C13.1319 6.21001 13.5667 5.3405 14.1137 4.5424C16.0307 4.88358 17.8101 5.76624 19.2416 7.08614C18.7083 7.76684 18.2566 8.50764 17.8957 9.2934C17.5351 10.0925 17.2735 10.9327 17.1166 11.7953Z" fill="#2265C6"/><path d="M30.6346 9.87887C31.5756 9.91411 32.5088 10.0632 33.4139 10.323C34.3735 10.5966 35.2974 10.9829 36.1662 11.4738C36.1573 10.4683 36.017 9.4684 35.749 8.49933C35.496 7.57937 35.1322 6.69356 34.6655 5.86137C33.8339 5.39201 32.948 5.02591 32.0276 4.7712C31.0562 4.50317 30.0541 4.36291 29.0464 4.35397C29.5379 5.22094 29.9264 6.14241 30.2039 7.0996C30.4555 8.00603 30.6 8.93881 30.6346 9.87887Z" fill="#2265C6"/><path d="M20.5404 5.67968C21.2242 5.04807 21.9784 4.49713 22.788 4.03768C23.6601 3.55549 24.5863 3.17826 25.5471 2.91386C24.1398 1.53278 22.4058 0.530361 20.5067 0C19.5872 0.254031 18.7032 0.62255 17.8755 1.0969C16.9988 1.5924 16.1911 2.20103 15.4731 2.90713C16.4337 3.17509 17.3597 3.55452 18.2322 4.03768C19.0504 4.49664 19.8135 5.04754 20.5067 5.67968H20.5404Z" fill="#2265C6"/><path d="M7.61978 21.2921L7.60564 21.3074L7.58614 21.2921H7.61978Z" fill="#2265C6"/><path d="M7.60564 21.3074C8.28047 21.8366 9.01467 22.2854 9.79341 22.6447C10.5929 23.0123 11.4366 23.2747 12.3035 23.4253C11.8118 24.1418 11.4075 24.9144 11.0989 25.7268C10.786 26.5441 10.5714 27.3958 10.4596 28.2638C9.50487 28.2148 8.56209 28.029 7.66016 27.712C6.74339 27.3994 5.8739 26.9624 5.07604 26.4132C5.24515 25.4798 5.54178 24.574 5.9576 23.7214C6.38694 22.841 6.94211 22.0278 7.60564 21.3074Z" fill="#2265C6"/><path d="M10.4125 9.85195C10.4483 8.91104 10.5974 7.97787 10.8567 7.07268C11.132 6.11578 11.5182 5.19433 12.0074 4.32705C10.0254 4.34894 8.08186 4.87709 6.36137 5.86137C5.39201 7.57444 4.87335 9.50553 4.85397 11.4738C5.72125 10.9846 6.6427 10.5984 7.5996 10.323C8.50479 10.0638 9.43796 9.91463 10.3789 9.87887L10.4125 9.85195Z" fill="#2265C6"/><path d="M21.8526 7.05922C22.3852 7.75248 22.8367 8.50433 23.1985 9.30013C23.5547 10.094 23.8145 10.9277 23.9724 11.7833C24.6945 11.2797 25.4767 10.8683 26.3008 10.5585C27.0963 10.2669 27.9227 10.0682 28.7638 9.96635C28.7168 8.98123 28.5333 8.0074 28.2187 7.07268C27.9077 6.17456 27.4752 5.32324 26.9334 4.5424C25.9802 4.71882 25.0562 5.02684 24.1878 5.4576C23.315 5.87881 22.5098 6.42767 21.7988 7.08614L21.8526 7.05922Z" fill="#2265C6"/><path d="M36.0249 13.5734C35.2268 13.0263 34.3573 12.5915 33.4408 12.2813C32.5267 11.9703 31.5725 11.7935 30.6077 11.7564C30.4949 12.6214 30.2826 13.4704 29.9751 14.2867C29.6642 15.0992 29.2576 15.8718 28.7638 16.5882C29.6292 16.7449 30.4722 17.007 31.2739 17.3688C32.061 17.7312 32.8038 18.1828 33.4879 18.7147C34.1508 17.9864 34.708 17.1687 35.1433 16.2853C35.5431 15.4333 35.8217 14.5295 35.9711 13.6003L36.0249 13.5734Z" fill="#2265C6"/><path d="M28.71 23.4118C29.2141 24.1326 29.6234 24.9151 29.928 25.7402C30.2325 26.5547 30.4424 27.4014 30.5538 28.2638C31.5491 28.2133 32.5322 28.023 33.4744 27.6985C34.3731 27.3888 35.2246 26.9563 36.0047 26.4132C35.8307 25.4603 35.5249 24.5362 35.0962 23.6676C34.6686 22.8031 34.1177 22.0051 33.461 21.2988C32.7677 21.8313 32.0159 22.2829 31.2201 22.6447C30.4175 23.0011 29.5746 23.2587 28.71 23.4118Z" fill="#2265C6"/><path d="M4.53769 17.7322C4.05685 16.8594 3.67968 15.9334 3.41386 14.9731C2.70776 15.6911 2.09913 16.4988 1.60363 17.3755C1.12695 18.2029 0.756162 19.0869 0.5 20.0067C0.755166 20.928 1.12361 21.8141 1.5969 22.6447C2.09077 23.5204 2.69958 24.3261 3.40713 25.0404C3.67488 24.0818 4.05433 23.158 4.53769 22.288C4.99705 21.4663 5.55033 20.7007 6.18641 20.0067C5.55192 19.3139 4.99875 18.5507 4.53769 17.7322Z" fill="#2265C6"/><path d="M37.6198 14.9731L37.6153 14.9892L37.5996 14.9731H37.6198Z" fill="#2265C6"/><path d="M37.6153 14.9892C38.9787 16.396 39.9702 18.1204 40.5 20.0067C40.2448 20.928 39.8764 21.8141 39.4031 22.6447C38.9116 23.5202 38.305 24.3259 37.5996 25.0404C37.3317 24.0819 36.9523 23.1581 36.469 22.288C36.0143 21.4634 35.4607 20.6973 34.8203 20.0067C35.4661 19.3184 36.0265 18.5547 36.4892 17.7322C36.9697 16.8646 37.3476 15.9441 37.6153 14.9892Z" fill="#2265C6"/><path d="M30.6346 30.1413C30.5988 31.08 30.4497 32.011 30.1904 32.9139C29.9198 33.8745 29.5333 34.7988 29.0397 35.6662C30.0473 35.6573 31.0495 35.517 32.0209 35.249C32.94 34.9936 33.8255 34.6299 34.6588 34.1655C35.1231 33.3322 35.4868 32.4467 35.7423 31.5276C36.0131 30.5543 36.1557 29.5499 36.1662 28.5397C35.2997 29.0322 34.3781 29.4207 33.4206 29.6972C32.5119 29.9509 31.5772 30.1 30.6346 30.1413Z" fill="#2265C6"/><path d="M20.5067 34.3203C19.8173 34.959 19.0537 35.5126 18.2322 35.969C17.3609 36.4529 16.4345 36.8302 15.4731 37.0929C16.1893 37.801 16.9973 38.4099 17.8755 38.9031C18.7032 39.3774 19.5872 39.746 20.5067 40C21.428 39.7448 22.3141 39.3764 23.1447 38.9031C24.0229 38.4099 24.8309 37.801 25.5471 37.0929C24.5853 36.8315 23.6588 36.4541 22.788 35.969C21.9634 35.5143 21.1973 34.9607 20.5067 34.3203Z" fill="#2265C6"/><path d="M19.2214 32.9139C18.6867 32.2221 18.235 31.47 17.8755 30.6729C17.5226 29.8808 17.265 29.0495 17.1083 28.1965C16.3876 28.7006 15.6051 29.11 14.7799 29.4145C13.972 29.7175 13.1321 29.9275 12.2766 30.0404C12.3131 31.0399 12.4968 32.0285 12.8217 32.9744C13.1303 33.8723 13.5605 34.7236 14.1003 35.5047C15.0532 35.3307 15.9772 35.0249 16.8459 34.5962C17.7146 34.1583 18.5148 33.5961 19.2214 32.9273V32.9139Z" fill="#2265C6"/><path d="M23.932 28.2032L23.9274 28.2297L23.8984 28.21L23.932 28.2032Z" fill="#2265C6"/><path d="M23.9274 28.2297C23.776 29.0873 23.5152 29.922 23.1514 30.7133C22.7893 31.5006 22.3377 32.2435 21.8055 32.9273C22.5314 33.5932 23.3496 34.1507 24.2349 34.5828C25.0875 34.9986 25.9932 35.2952 26.9266 35.4643C27.4772 34.6673 27.9143 33.7976 28.2254 32.8802C28.5443 31.9701 28.7258 31.0175 28.7638 30.0538C27.899 29.9401 27.0501 29.7279 26.2335 29.4213C25.4202 29.1169 24.6461 28.7169 23.9274 28.2297Z" fill="#2265C6"/><path d="M10.3789 30.1413C9.43862 30.0989 8.50623 29.9499 7.5996 29.6972C6.64241 29.4197 5.72094 29.0312 4.85397 28.5397C4.86291 29.5473 5.00317 30.5495 5.2712 31.5209C5.52591 32.4413 5.89201 33.3271 6.36137 34.1588C7.19356 34.6255 8.07937 34.9893 8.99933 35.2423C9.9684 35.5103 10.9683 35.6506 11.9738 35.6595C11.4834 34.7928 11.0971 33.8712 10.823 32.9139C10.5638 32.011 10.4146 31.08 10.3789 30.1413Z" fill="#2265C6"/></g><defs><clipPath id="clip0_516_23454"><rect width="40" height="40" fill="white" transform="translate(0.5)"/></clipPath></defs></svg>