<svg width="120" height="25" viewBox="0 0 120 25" fill="none" xmlns="http://www.w3.org/2000/svg">
<path d="M47.6506 22.6292C45.5922 22.6292 43.8157 21.9243 42.3776 20.5144C40.9395 19.0763 40.2346 17.328 40.2346 15.2414C40.2346 13.1547 40.9395 11.4065 42.3776 9.99656C43.8157 8.55846 45.564 7.85352 47.6506 7.85352C49.7091 7.85352 51.4574 8.55846 52.8955 9.99656C54.3335 11.4065 55.0667 13.1547 55.0667 15.2414C55.0667 17.2998 54.3335 19.0763 52.8955 20.5144C51.4574 21.9243 49.7091 22.6292 47.6506 22.6292ZM47.6506 20.8246C49.2015 20.8246 50.5268 20.2888 51.5983 19.2173C52.6699 18.1176 53.2056 16.7923 53.2056 15.2414C53.2056 13.6905 52.6699 12.3652 51.5983 11.2937C50.5268 10.1939 49.2015 9.65818 47.6506 9.65818C46.0998 9.65818 44.7745 10.1939 43.7029 11.2937C42.6314 12.3652 42.0957 13.6905 42.0957 15.2414C42.0957 16.7923 42.6314 18.1176 43.7029 19.2173C44.7745 20.2888 46.0998 20.8246 47.6506 20.8246Z" fill="#000C21"/>
<path d="M39.8193 8.19185V9.99651H35.7588V18.5405C35.7588 19.6402 36.0972 20.2887 36.7739 20.5425C37.1687 20.6835 38.1838 20.7399 39.8193 20.6553V22.2908C37.8172 22.601 36.3228 22.46 35.3922 21.8678C34.4053 21.2757 33.8977 20.1478 33.8977 18.5405V9.99651V8.19185V4.8081L35.7588 4.24414V8.19185H39.8193Z" fill="#000C21"/>
<path d="M20.7284 20.5144C19.3185 19.0763 18.6136 17.2998 18.6136 15.2414C18.6136 13.1547 19.3185 11.4065 20.7284 9.99656C22.1383 8.55846 23.9148 7.85352 26.0296 7.85352C27.4113 7.85352 28.6802 8.19189 29.78 8.84044C30.8797 9.51719 31.6974 10.4195 32.205 11.5474L30.6823 12.4216C30.3157 11.5756 29.6954 10.8989 28.8776 10.3913C28.0317 9.91196 27.073 9.65818 26.0296 9.65818C24.4788 9.65818 23.1535 10.1939 22.0819 11.2937C21.0104 12.3652 20.4746 13.6905 20.4746 15.2414C20.4746 16.7923 21.0104 18.1176 22.0819 19.2173C23.1535 20.2888 24.4788 20.8246 26.0296 20.8246C28.2009 20.8246 29.78 19.894 30.7951 18.0612L32.346 18.9635C31.7538 20.0914 30.9079 20.9937 29.78 21.6423C28.652 22.2908 27.4113 22.6292 26.0296 22.6292C23.9148 22.6292 22.1383 21.9243 20.7284 20.5144Z" fill="#000C21"/>
<path d="M9.91605 22.6292C7.8576 22.6292 6.08113 21.9243 4.64304 20.5144C3.20495 19.0763 2.5 17.328 2.5 15.2414C2.5 13.1547 3.20495 11.4065 4.64304 9.99656C6.08113 8.55846 7.82941 7.85352 9.91605 7.85352C11.9745 7.85352 13.7228 8.55846 15.1609 9.99656C16.599 11.4065 17.3321 13.1547 17.3321 15.2414C17.3321 17.2998 16.599 19.0763 15.1609 20.5144C13.7228 21.9243 11.9745 22.6292 9.91605 22.6292ZM9.91605 20.8246C11.4669 20.8246 12.7922 20.2888 13.8638 19.2173C14.9353 18.1176 15.471 16.7923 15.471 15.2414C15.471 13.6905 14.9353 12.3652 13.8638 11.2937C12.7922 10.1939 11.4669 9.65818 9.91605 9.65818C8.36517 9.65818 7.03986 10.1939 5.96834 11.2937C4.89682 12.3652 4.36106 13.6905 4.36106 15.2414C4.36106 16.7923 4.89682 18.1176 5.96834 19.2173C7.03986 20.2888 8.36517 20.8246 9.91605 20.8246Z" fill="#000C21"/>
<path d="M117.514 16.7988H106.333C106.557 17.8382 107.063 18.6529 107.878 19.2429C108.664 19.8328 109.648 20.1138 110.828 20.1138C112.429 20.1138 113.637 19.5238 114.452 18.372L116.952 19.8328C115.575 21.8836 113.524 22.8949 110.799 22.8949C108.524 22.8949 106.698 22.1926 105.265 20.8161C103.861 19.4114 103.158 17.6416 103.158 15.5065C103.158 13.4277 103.861 11.6859 105.237 10.2532C106.614 8.82048 108.384 8.11816 110.575 8.11816C112.626 8.11816 114.311 8.84857 115.631 10.2813C116.952 11.714 117.626 13.4839 117.626 15.5346C117.626 15.8998 117.598 16.3212 117.514 16.7988ZM106.305 14.3267H114.564C114.367 13.231 113.89 12.3602 113.159 11.7421C112.457 11.1522 111.586 10.8713 110.547 10.8713C109.423 10.8713 108.496 11.1803 107.737 11.7983C106.979 12.4163 106.501 13.2591 106.305 14.3267Z" fill="#000C21"/>
<path d="M98.3162 8.4833V10.8431C99.0747 9.10134 100.536 8.23047 102.642 8.23047V11.5173C101.491 11.433 100.479 11.714 99.6084 12.3601C98.7376 12.9781 98.3162 14.0176 98.3162 15.4503V22.5297H95.2822V8.4833H98.3162Z" fill="#000C21"/>
<path d="M89.9927 10.478V8.48337H93.0267V22.5297H89.9927V20.5071C88.8409 22.1083 87.2115 22.8949 85.0764 22.8949C83.138 22.8949 81.5087 22.1926 80.1321 20.7599C78.7556 19.3272 78.0814 17.5854 78.0814 15.5065C78.0814 13.4277 78.7556 11.6859 80.1321 10.2532C81.5087 8.82048 83.138 8.11816 85.0764 8.11816C87.2115 8.11816 88.8409 8.90476 89.9927 10.478ZM85.554 20.0014C86.8182 20.0014 87.8857 19.58 88.7285 18.7372C89.5713 17.8663 89.9927 16.7707 89.9927 15.5065C89.9927 14.2143 89.5713 13.1468 88.7285 12.304C87.8857 11.4331 86.8182 11.0117 85.554 11.0117C84.2899 11.0117 83.2223 11.4331 82.3795 12.304C81.5368 13.1468 81.1154 14.2143 81.1154 15.5065C81.1154 16.7707 81.5368 17.8663 82.3795 18.7372C83.2223 19.58 84.2899 20.0014 85.554 20.0014Z" fill="#000C21"/>
<path d="M61.0094 19.9737C59.071 17.9791 58.0877 15.5631 58.0877 12.6977C58.0877 9.80411 59.071 7.38813 61.0094 5.44974C62.9477 3.48325 65.4199 2.5 68.3696 2.5C70.1395 2.5 71.797 2.92139 73.314 3.76417C74.8029 4.60696 75.9828 5.75876 76.8256 7.19149L74.0163 8.82086C73.4825 7.83762 72.724 7.07911 71.7408 6.51726C70.7294 5.92731 69.6057 5.64639 68.3696 5.64639C66.2908 5.64639 64.5771 6.32061 63.2568 7.64097C61.9645 8.96133 61.3184 10.6469 61.3184 12.6977C61.3184 14.7484 61.9645 16.434 63.2568 17.7543C64.5771 19.0747 66.2908 19.7489 68.3696 19.7489C69.6057 19.7489 70.7294 19.468 71.7408 18.8781C72.7521 18.3162 73.5106 17.5577 74.0163 16.5745L76.8256 18.1757C76.0109 19.6085 74.8591 20.7603 73.314 21.6311C71.825 22.4739 70.1957 22.8953 68.3696 22.8953C65.4199 22.8953 62.9477 21.9121 61.0094 19.9737Z" fill="#000C21"/>
</svg>
